<svg xmlns="http://www.w3.org/2000/svg" xmlns:xlink="http://www.w3.org/1999/xlink" width="540" zoomAndPan="magnify" viewBox="0 0 404.88 123.750003" height="165" preserveAspectRatio="xMidYMid meet" version="1.2"><defs><clipPath id="c87e1d2e6f"><path d="M 0.347656 0 L 123.847656 0 L 123.847656 123.5 L 0.347656 123.5 Z M 0.347656 0 "/></clipPath><clipPath id="5d211f4506"><path d="M 49.125 103 L 73.824219 103 L 73.824219 123.5 L 49.125 123.5 Z M 49.125 103 "/></clipPath><clipPath id="ef1faaa824"><path d="M 58 99.132812 L 63 99.132812 L 63 104 L 58 104 Z M 58 99.132812 "/></clipPath><clipPath id="379b16ec85"><path d="M 6.679688 6.328125 L 41.109375 6.328125 L 41.109375 117.105469 L 6.679688 117.105469 Z M 6.679688 6.328125 "/></clipPath><clipPath id="c2daf7baf5"><path d="M 81.765625 6.328125 L 117.453125 6.328125 L 117.453125 117.105469 L 81.765625 117.105469 Z M 81.765625 6.328125 "/></clipPath><clipPath id="e06476e9da"><path d="M 6.679688 6.328125 L 117.453125 6.328125 L 117.453125 43.003906 L 6.679688 43.003906 Z M 6.679688 6.328125 "/></clipPath></defs><g id="c0c4c50907"><g clip-rule="nonzero" clip-path="url(#c87e1d2e6f)"><path style=" stroke:none;fill-rule:evenodd;fill:#3bb77e;fill-opacity:1;" d="M 62.121094 -0.0195312 C 96.226562 -0.0195312 123.871094 27.628906 123.871094 61.730469 C 123.871094 87.757812 107.765625 110.023438 84.976562 119.109375 L 84.074219 99.652344 L 84.074219 99.613281 C 84.125 95.765625 85.75 92.734375 89.355469 91.210938 L 89.816406 91.023438 L 89.839844 91.015625 L 89.871094 91.003906 L 89.917969 90.984375 C 92.570312 89.910156 94.734375 88.464844 96.203125 85.957031 C 98.042969 82.835938 98.398438 78.675781 98.398438 75.136719 C 98.398438 68.332031 96.394531 60.300781 92.9375 54.414062 C 90.484375 50.234375 86.609375 46.003906 81.378906 46.003906 C 76.148438 46.003906 72.273438 50.234375 69.816406 54.414062 C 66.359375 60.300781 64.355469 68.332031 64.355469 75.136719 C 64.355469 78.679688 64.710938 82.839844 66.550781 85.957031 C 68.039062 88.480469 70.226562 89.933594 72.894531 91.007812 C 72.96875 91.035156 73.042969 91.070312 73.117188 91.097656 L 73.136719 91.097656 L 73.371094 91.195312 C 76.988281 92.71875 78.632812 95.714844 78.683594 99.613281 L 78.683594 99.652344 L 77.667969 121.507812 C 72.699219 122.796875 67.488281 123.484375 62.121094 123.484375 C 56.558594 123.484375 51.171875 122.742188 46.042969 121.367188 L 45.097656 100.90625 L 45.097656 100.859375 C 45.148438 96.914062 46.828125 93.804688 50.523438 92.242188 L 50.992188 92.058594 L 51.007812 92.054688 L 51.027344 92.042969 L 51.078125 92.023438 C 53.683594 90.96875 55.808594 89.550781 57.257812 87.089844 C 59.070312 84.011719 59.417969 79.878906 59.417969 76.386719 C 59.417969 76.046875 59.40625 75.707031 59.386719 75.371094 C 59.375 75.175781 59.355469 74.980469 59.332031 74.789062 L 59.300781 74.503906 L 59.351562 74.3125 L 57.109375 48.191406 L 54.757812 48.195312 L 54.558594 75.800781 L 50.644531 76.1875 L 48.320312 44.988281 L 45.773438 45.140625 L 45.269531 76.574219 L 43.886719 76.628906 C 43.597656 76.644531 43.308594 76.648438 43.019531 76.648438 C 42.730469 76.648438 42.4375 76.644531 42.148438 76.628906 L 40.773438 76.574219 L 40.066406 45.140625 L 37.519531 44.992188 L 35.398438 76.191406 L 31.480469 75.804688 L 31.285156 48.195312 L 28.921875 48.195312 L 25.886719 74.324219 L 25.9375 74.507812 L 25.902344 74.785156 C 25.882812 74.980469 25.867188 75.175781 25.855469 75.371094 C 25.832031 75.707031 25.820312 76.046875 25.820312 76.386719 C 25.820312 79.878906 26.167969 84.011719 27.984375 87.089844 C 29.445312 89.570312 31.59375 90.988281 34.214844 92.042969 C 34.277344 92.070312 34.339844 92.09375 34.398438 92.117188 L 34.417969 92.117188 L 34.691406 92.234375 C 38.390625 93.792969 40.089844 96.871094 40.144531 100.859375 L 40.144531 100.90625 L 39.300781 119.136719 C 16.480469 110.066406 0.351562 87.785156 0.351562 61.734375 C 0.367188 27.625 28.011719 -0.0195312 62.121094 -0.0195312 "/></g><g clip-rule="nonzero" clip-path="url(#5d211f4506)"><path style=" stroke:none;fill-rule:evenodd;fill:#ffffff;fill-opacity:1;" d="M 54.78125 119.976562 L 58.042969 119.976562 C 58.042969 120.875 57.3125 121.609375 56.410156 121.609375 C 55.511719 121.609375 54.78125 120.875 54.78125 119.976562 Z M 70.25 118.34375 C 71.152344 118.34375 71.882812 119.074219 71.882812 119.976562 C 71.882812 120.875 71.152344 121.609375 70.25 121.609375 C 69.351562 121.609375 68.617188 120.875 68.617188 119.976562 C 68.617188 119.644531 68.71875 119.320312 68.90625 119.046875 L 69.761719 120.132812 C 69.921875 120.347656 70.195312 120.445312 70.425781 120.308594 C 70.660156 120.171875 70.703125 119.894531 70.605469 119.644531 L 69.953125 118.371094 C 70.050781 118.351562 70.152344 118.34375 70.25 118.34375 Z M 53.429688 107.429688 C 53.5 107.433594 53.585938 107.480469 53.683594 107.546875 C 54.5625 108.148438 54.832031 109.851562 54.0625 110.625 C 53.949219 110.734375 53.902344 110.804688 53.902344 110.996094 L 53.902344 112.816406 C 53.902344 113.160156 53.246094 113.160156 53.246094 112.816406 L 53.246094 107.800781 C 53.242188 107.515625 53.316406 107.417969 53.429688 107.429688 Z M 51.574219 107.429688 C 51.65625 107.425781 51.738281 107.5 51.742188 107.636719 L 51.800781 109.015625 C 51.796875 109.214844 52.097656 109.214844 52.089844 109.015625 L 52.089844 107.683594 C 52.089844 107.507812 52.183594 107.460938 52.316406 107.625 C 52.535156 107.882812 52.652344 108.472656 52.652344 108.894531 C 52.652344 109.457031 52.425781 109.964844 52.066406 110.207031 C 51.933594 110.292969 51.902344 110.324219 51.902344 110.515625 L 51.902344 112.816406 C 51.902344 113.160156 51.242188 113.160156 51.242188 112.816406 L 51.242188 110.515625 C 51.238281 110.332031 51.238281 110.300781 51.082031 110.207031 C 50.714844 109.976562 50.496094 109.457031 50.496094 108.894531 C 50.496094 108.476562 50.613281 107.882812 50.828125 107.625 C 50.964844 107.460938 51.058594 107.507812 51.058594 107.683594 L 51.058594 109.015625 C 51.050781 109.214844 51.351562 109.214844 51.347656 109.015625 L 51.40625 107.648438 C 51.410156 107.5 51.492188 107.429688 51.574219 107.429688 Z M 59.367188 103.90625 C 58.816406 103.921875 58.285156 104.207031 58.140625 104.703125 L 56.578125 110.121094 C 56.335938 110.960938 56.609375 112.089844 57.886719 112.089844 L 61.878906 112.089844 L 62.757812 116.726562 C 62.910156 117.542969 64.46875 117.558594 64.40625 116.726562 L 64.011719 111.480469 C 63.945312 110.640625 63.605469 110.324219 62.996094 110.242188 L 59.941406 109.777344 L 60.25 107.179688 L 61.683594 108.265625 C 61.984375 108.492188 62.125 108.527344 62.464844 108.585938 L 64.214844 108.894531 C 64.398438 108.929688 64.480469 109.007812 64.605469 109.308594 L 67.207031 115.683594 C 67.800781 117.128906 67.339844 118.109375 65.457031 118.109375 L 62.097656 118.109375 C 60.644531 118.109375 59.867188 116.875 60.339844 115.808594 L 61.03125 114.253906 C 61.34375 113.550781 60.972656 112.8125 60.21875 112.8125 L 55.804688 112.8125 L 55.804688 106.03125 C 55.804688 105.042969 55.28125 104.753906 54.40625 104.753906 L 52.535156 104.753906 C 50.71875 104.753906 49.261719 106.210938 49.261719 108.027344 L 49.261719 113.382812 C 49.261719 113.964844 49.695312 114.433594 50.230469 114.433594 L 53.757812 114.433594 C 52.160156 115.4375 51.144531 117.40625 51.316406 119.132812 C 51.390625 119.886719 51.824219 119.976562 52.148438 119.976562 L 53.183594 119.976562 C 53.183594 121.757812 54.628906 123.203125 56.410156 123.203125 C 58.191406 123.203125 59.640625 121.757812 59.640625 119.976562 L 67.023438 119.976562 C 67.023438 121.757812 68.46875 123.203125 70.25 123.203125 C 72.035156 123.203125 73.480469 121.757812 73.480469 119.976562 C 73.476562 119.410156 73.328125 118.851562 73.042969 118.363281 L 73.242188 118.394531 C 73.605469 118.449219 73.699219 118.003906 73.519531 117.613281 C 72.925781 116.316406 71.660156 115.464844 70.257812 115.394531 C 70.121094 115.386719 69.996094 115.308594 69.996094 115.140625 L 69.996094 114.882812 C 69.996094 114.566406 69.996094 114.3125 69.75 113.976562 L 66.253906 109.105469 C 66.074219 108.800781 66.121094 108.628906 66.425781 108.628906 L 67.019531 108.628906 C 67.414062 108.628906 67.703125 108.546875 67.648438 108.085938 L 67.472656 106.925781 C 67.425781 106.5625 67.273438 106.316406 66.75 106.316406 L 65.828125 106.316406 C 64.84375 106.316406 64.445312 107 64.179688 107.355469 C 64.128906 107.421875 64.089844 107.480469 64.054688 107.53125 L 62.648438 107.082031 L 60.523438 104.398438 C 60.242188 104.050781 59.796875 103.898438 59.367188 103.90625 Z M 59.367188 103.90625 "/></g><g clip-rule="nonzero" clip-path="url(#ef1faaa824)"><path style=" stroke:none;fill-rule:evenodd;fill:#ffffff;fill-opacity:1;" d="M 60.316406 99.203125 C 59.382812 99.140625 58.515625 99.695312 58.175781 100.566406 C 57.835938 101.441406 58.097656 102.441406 58.835938 103.019531 C 59.25 103.34375 59.746094 103.574219 60.183594 103.578125 C 61.238281 103.578125 62.101562 102.714844 62.109375 101.660156 L 61.558594 101.691406 C 61.535156 102.441406 60.933594 103.03125 60.183594 103.03125 C 60.09375 103.03125 60.011719 103.023438 59.929688 103.007812 C 60.015625 102.886719 60.078125 102.726562 60.121094 102.542969 C 60.386719 101.441406 61.175781 101.425781 61.90625 101.371094 C 62.121094 101.355469 62.40625 101.355469 62.65625 101.355469 C 63.09375 101.355469 63.105469 100.804688 62.734375 100.734375 L 62.234375 100.644531 C 62.097656 100.269531 61.859375 99.945312 61.539062 99.679688 C 61.214844 99.414062 60.785156 99.234375 60.316406 99.203125 Z M 60.316406 99.203125 "/></g><g style="fill:#000000;fill-opacity:1;"><g transform="translate(141.415013, 93.743679)"><path style="stroke:none" d="M 2.4375 -13.90625 L 5.953125 -13.890625 C 7.785156 -13.890625 9.394531 -13.226562 10.78125 -11.90625 C 12.175781 -10.59375 12.875 -8.972656 12.875 -7.046875 C 12.875 -5.117188 12.191406 -3.460938 10.828125 -2.078125 C 9.472656 -0.703125 7.828125 -0.015625 5.890625 -0.015625 L 2.421875 -0.015625 C 1.648438 -0.015625 1.171875 -0.175781 0.984375 -0.5 C 0.835938 -0.757812 0.765625 -1.160156 0.765625 -1.703125 L 0.765625 -12.25 C 0.765625 -12.550781 0.769531 -12.769531 0.78125 -12.90625 C 0.800781 -13.039062 0.863281 -13.207031 0.96875 -13.40625 C 1.144531 -13.738281 1.632812 -13.90625 2.4375 -13.90625 Z M 5.953125 -3.375 C 6.859375 -3.375 7.675781 -3.710938 8.40625 -4.390625 C 9.144531 -5.066406 9.515625 -5.914062 9.515625 -6.9375 C 9.515625 -7.957031 9.15625 -8.8125 8.4375 -9.5 C 7.726562 -10.1875 6.894531 -10.53125 5.9375 -10.53125 L 4.109375 -10.53125 L 4.109375 -3.375 Z M 5.953125 -3.375 "/></g></g><g style="fill:#000000;fill-opacity:1;"><g transform="translate(159.027686, 93.743679)"><path style="stroke:none" d="M 4.109375 -3.359375 L 9.953125 -3.359375 C 10.242188 -3.359375 10.460938 -3.347656 10.609375 -3.328125 C 10.753906 -3.304688 10.921875 -3.242188 11.109375 -3.140625 C 11.453125 -2.960938 11.625 -2.472656 11.625 -1.671875 C 11.625 -0.785156 11.390625 -0.265625 10.921875 -0.109375 C 10.703125 -0.0351562 10.375 0 9.9375 0 L 2.421875 0 C 1.535156 0 1.019531 -0.238281 0.875 -0.71875 C 0.800781 -0.925781 0.765625 -1.25 0.765625 -1.6875 L 0.765625 -12.21875 C 0.765625 -12.863281 0.882812 -13.300781 1.125 -13.53125 C 1.363281 -13.769531 1.816406 -13.890625 2.484375 -13.890625 L 9.953125 -13.890625 C 10.242188 -13.890625 10.460938 -13.878906 10.609375 -13.859375 C 10.753906 -13.835938 10.921875 -13.78125 11.109375 -13.6875 C 11.453125 -13.507812 11.625 -13.015625 11.625 -12.203125 C 11.625 -11.316406 11.390625 -10.800781 10.921875 -10.65625 C 10.703125 -10.570312 10.375 -10.53125 9.9375 -10.53125 L 4.109375 -10.53125 L 4.109375 -8.625 L 7.859375 -8.625 C 8.148438 -8.625 8.367188 -8.613281 8.515625 -8.59375 C 8.660156 -8.570312 8.828125 -8.515625 9.015625 -8.421875 C 9.359375 -8.242188 9.53125 -7.75 9.53125 -6.9375 C 9.53125 -6.050781 9.289062 -5.53125 8.8125 -5.375 C 8.59375 -5.300781 8.265625 -5.265625 7.828125 -5.265625 L 4.109375 -5.265625 Z M 4.109375 -3.359375 "/></g></g><g style="fill:#000000;fill-opacity:1;"><g transform="translate(175.38914, 93.743679)"><path style="stroke:none" d="M 4.109375 -2.8125 L 9.265625 -2.8125 C 9.679688 -2.8125 9.984375 -2.757812 10.171875 -2.65625 C 10.367188 -2.5625 10.5 -2.414062 10.5625 -2.21875 C 10.625 -2.019531 10.65625 -1.75 10.65625 -1.40625 C 10.65625 -1.070312 10.625 -0.800781 10.5625 -0.59375 C 10.5 -0.394531 10.390625 -0.257812 10.234375 -0.1875 C 9.992188 -0.0625 9.664062 0 9.25 0 L 2.421875 0 C 1.535156 0 1.019531 -0.238281 0.875 -0.71875 C 0.800781 -0.925781 0.765625 -1.25 0.765625 -1.6875 L 0.765625 -12.21875 C 0.765625 -12.507812 0.769531 -12.726562 0.78125 -12.875 C 0.800781 -13.019531 0.863281 -13.1875 0.96875 -13.375 C 1.144531 -13.71875 1.632812 -13.890625 2.4375 -13.890625 C 3.320312 -13.890625 3.847656 -13.65625 4.015625 -13.1875 C 4.078125 -12.976562 4.109375 -12.648438 4.109375 -12.203125 Z M 4.109375 -2.8125 "/></g></g><g style="fill:#000000;fill-opacity:1;"><g transform="translate(190.783749, 93.743679)"><path style="stroke:none" d="M 0.765625 -12.21875 C 0.765625 -12.507812 0.769531 -12.726562 0.78125 -12.875 C 0.800781 -13.019531 0.863281 -13.1875 0.96875 -13.375 C 1.144531 -13.71875 1.632812 -13.890625 2.4375 -13.890625 C 3.320312 -13.890625 3.847656 -13.65625 4.015625 -13.1875 C 4.078125 -12.976562 4.109375 -12.648438 4.109375 -12.203125 L 4.109375 -1.671875 C 4.109375 -1.367188 4.097656 -1.144531 4.078125 -1 C 4.066406 -0.863281 4.007812 -0.703125 3.90625 -0.515625 C 3.726562 -0.171875 3.234375 0 2.421875 0 C 1.535156 0 1.019531 -0.238281 0.875 -0.71875 C 0.800781 -0.925781 0.765625 -1.25 0.765625 -1.6875 Z M 0.765625 -12.21875 "/></g></g><g style="fill:#000000;fill-opacity:1;"><g transform="translate(199.922277, 93.743679)"><path style="stroke:none" d="M 13.4375 -13.6875 C 14.1875 -13.320312 14.5625 -12.914062 14.5625 -12.46875 C 14.5625 -12.269531 14.460938 -11.96875 14.265625 -11.5625 L 9.046875 -0.953125 C 8.898438 -0.671875 8.6875 -0.441406 8.40625 -0.265625 C 8.125 -0.0976562 7.832031 -0.015625 7.53125 -0.015625 L 7.328125 -0.015625 C 7.015625 -0.015625 6.71875 -0.0976562 6.4375 -0.265625 C 6.15625 -0.441406 5.941406 -0.671875 5.796875 -0.953125 L 0.5625 -11.5625 C 0.375 -11.96875 0.28125 -12.269531 0.28125 -12.46875 C 0.28125 -12.914062 0.65625 -13.320312 1.40625 -13.6875 C 1.820312 -13.894531 2.140625 -14 2.359375 -14 C 2.578125 -14 2.742188 -13.972656 2.859375 -13.921875 C 2.972656 -13.878906 3.082031 -13.796875 3.1875 -13.671875 C 3.300781 -13.515625 3.40625 -13.34375 3.5 -13.15625 C 3.59375 -12.976562 3.832031 -12.457031 4.21875 -11.59375 C 4.613281 -10.726562 5.035156 -9.804688 5.484375 -8.828125 C 5.929688 -7.859375 6.351562 -6.941406 6.75 -6.078125 C 7.15625 -5.210938 7.378906 -4.726562 7.421875 -4.625 L 11.21875 -12.921875 C 11.320312 -13.160156 11.410156 -13.351562 11.484375 -13.5 C 11.710938 -13.832031 11.988281 -14 12.3125 -14 C 12.644531 -14 13.019531 -13.894531 13.4375 -13.6875 Z M 13.4375 -13.6875 "/></g></g><g style="fill:#000000;fill-opacity:1;"><g transform="translate(219.032623, 93.743679)"><path style="stroke:none" d="M 4.109375 -3.359375 L 9.953125 -3.359375 C 10.242188 -3.359375 10.460938 -3.347656 10.609375 -3.328125 C 10.753906 -3.304688 10.921875 -3.242188 11.109375 -3.140625 C 11.453125 -2.960938 11.625 -2.472656 11.625 -1.671875 C 11.625 -0.785156 11.390625 -0.265625 10.921875 -0.109375 C 10.703125 -0.0351562 10.375 0 9.9375 0 L 2.421875 0 C 1.535156 0 1.019531 -0.238281 0.875 -0.71875 C 0.800781 -0.925781 0.765625 -1.25 0.765625 -1.6875 L 0.765625 -12.21875 C 0.765625 -12.863281 0.882812 -13.300781 1.125 -13.53125 C 1.363281 -13.769531 1.816406 -13.890625 2.484375 -13.890625 L 9.953125 -13.890625 C 10.242188 -13.890625 10.460938 -13.878906 10.609375 -13.859375 C 10.753906 -13.835938 10.921875 -13.78125 11.109375 -13.6875 C 11.453125 -13.507812 11.625 -13.015625 11.625 -12.203125 C 11.625 -11.316406 11.390625 -10.800781 10.921875 -10.65625 C 10.703125 -10.570312 10.375 -10.53125 9.9375 -10.53125 L 4.109375 -10.53125 L 4.109375 -8.625 L 7.859375 -8.625 C 8.148438 -8.625 8.367188 -8.613281 8.515625 -8.59375 C 8.660156 -8.570312 8.828125 -8.515625 9.015625 -8.421875 C 9.359375 -8.242188 9.53125 -7.75 9.53125 -6.9375 C 9.53125 -6.050781 9.289062 -5.53125 8.8125 -5.375 C 8.59375 -5.300781 8.265625 -5.265625 7.828125 -5.265625 L 4.109375 -5.265625 Z M 4.109375 -3.359375 "/></g></g><g style="fill:#000000;fill-opacity:1;"><g transform="translate(235.394077, 93.743679)"><path style="stroke:none" d="M 11.390625 -2.34375 C 11.578125 -1.894531 11.671875 -1.566406 11.671875 -1.359375 C 11.671875 -0.878906 11.28125 -0.476562 10.5 -0.15625 C 10.09375 0.0195312 9.765625 0.109375 9.515625 0.109375 C 9.273438 0.109375 9.078125 0.0507812 8.921875 -0.0625 C 8.765625 -0.1875 8.644531 -0.3125 8.5625 -0.4375 C 8.4375 -0.675781 7.945312 -1.816406 7.09375 -3.859375 L 6.5 -3.828125 L 4.109375 -3.828125 L 4.109375 -1.6875 C 4.109375 -1.394531 4.097656 -1.175781 4.078125 -1.03125 C 4.066406 -0.882812 4.007812 -0.71875 3.90625 -0.53125 C 3.726562 -0.1875 3.234375 -0.015625 2.421875 -0.015625 C 1.535156 -0.015625 1.019531 -0.25 0.875 -0.71875 C 0.800781 -0.9375 0.765625 -1.265625 0.765625 -1.703125 L 0.765625 -12.21875 C 0.765625 -12.507812 0.769531 -12.726562 0.78125 -12.875 C 0.800781 -13.019531 0.863281 -13.1875 0.96875 -13.375 C 1.144531 -13.71875 1.632812 -13.890625 2.4375 -13.890625 L 6.53125 -13.890625 C 7.644531 -13.890625 8.726562 -13.484375 9.78125 -12.671875 C 10.28125 -12.285156 10.695312 -11.753906 11.03125 -11.078125 C 11.363281 -10.410156 11.53125 -9.664062 11.53125 -8.84375 C 11.53125 -7.414062 11.054688 -6.242188 10.109375 -5.328125 C 10.378906 -4.660156 10.804688 -3.664062 11.390625 -2.34375 Z M 4.109375 -7.1875 L 6.53125 -7.1875 C 6.90625 -7.1875 7.273438 -7.320312 7.640625 -7.59375 C 8.003906 -7.875 8.1875 -8.289062 8.1875 -8.84375 C 8.1875 -9.40625 8.003906 -9.828125 7.640625 -10.109375 C 7.273438 -10.390625 6.894531 -10.53125 6.5 -10.53125 L 4.109375 -10.53125 Z M 4.109375 -7.1875 "/></g></g><g style="fill:#000000;fill-opacity:1;"><g transform="translate(251.622831, 93.743679)"><path style="stroke:none" d="M 11.78125 -13.625 C 12.40625 -13.195312 12.71875 -12.78125 12.71875 -12.375 C 12.71875 -12.132812 12.570312 -11.800781 12.28125 -11.375 L 8.1875 -5.25 L 8.1875 -1.625 C 8.1875 -1.332031 8.175781 -1.113281 8.15625 -0.96875 C 8.132812 -0.832031 8.070312 -0.664062 7.96875 -0.46875 C 7.875 -0.28125 7.707031 -0.148438 7.46875 -0.078125 C 7.226562 -0.00390625 6.90625 0.03125 6.5 0.03125 C 6.09375 0.03125 5.769531 -0.00390625 5.53125 -0.078125 C 5.289062 -0.148438 5.117188 -0.285156 5.015625 -0.484375 C 4.921875 -0.679688 4.863281 -0.851562 4.84375 -1 C 4.820312 -1.144531 4.8125 -1.367188 4.8125 -1.671875 L 4.8125 -5.25 L 0.71875 -11.375 C 0.425781 -11.800781 0.28125 -12.132812 0.28125 -12.375 C 0.28125 -12.78125 0.554688 -13.164062 1.109375 -13.53125 C 1.671875 -13.90625 2.070312 -14.09375 2.3125 -14.09375 C 2.550781 -14.09375 2.738281 -14.046875 2.875 -13.953125 C 3.09375 -13.804688 3.320312 -13.546875 3.5625 -13.171875 L 6.5 -8.46875 L 9.4375 -13.171875 C 9.675781 -13.546875 9.882812 -13.789062 10.0625 -13.90625 C 10.238281 -14.03125 10.441406 -14.09375 10.671875 -14.09375 C 10.910156 -14.09375 11.28125 -13.9375 11.78125 -13.625 Z M 11.78125 -13.625 "/></g></g><g style="fill:#000000;fill-opacity:1;"><g transform="translate(268.894267, 93.743679)"><path style="stroke:none" d=""/></g></g><g style="fill:#000000;fill-opacity:1;"><g transform="translate(277.95696, 93.743679)"><path style="stroke:none" d="M 12.25 0.015625 C 11.144531 0.015625 10.054688 -0.265625 8.984375 -0.828125 C 7.785156 -0.171875 6.570312 0.15625 5.34375 0.15625 C 2.09375 0.15625 0.46875 -1.195312 0.46875 -3.90625 C 0.46875 -5.3125 1.195312 -6.613281 2.65625 -7.8125 C 2.144531 -8.9375 1.890625 -9.953125 1.890625 -10.859375 C 1.890625 -12.117188 2.269531 -13.050781 3.03125 -13.65625 C 3.789062 -14.269531 4.804688 -14.578125 6.078125 -14.578125 C 7.359375 -14.578125 8.328125 -14.269531 8.984375 -13.65625 C 9.640625 -13.050781 9.96875 -12.226562 9.96875 -11.1875 C 9.96875 -10.300781 9.609375 -9.503906 8.890625 -8.796875 C 8.359375 -8.265625 7.613281 -7.675781 6.65625 -7.03125 C 7.394531 -6.039062 8.203125 -5.207031 9.078125 -4.53125 C 9.429688 -5.070312 9.675781 -5.628906 9.8125 -6.203125 C 9.9375 -6.753906 10.507812 -7.03125 11.53125 -7.03125 C 11.957031 -7.03125 12.28125 -6.972656 12.5 -6.859375 C 12.71875 -6.742188 12.84375 -6.625 12.875 -6.5 C 12.90625 -6.382812 12.914062 -6.234375 12.90625 -6.046875 C 12.851562 -5.085938 12.460938 -4.132812 11.734375 -3.1875 C 11.921875 -3.144531 12.097656 -3.125 12.265625 -3.125 C 13.242188 -3.125 13.734375 -2.625 13.734375 -1.625 C 13.734375 -0.9375 13.617188 -0.488281 13.390625 -0.28125 C 13.171875 -0.0820312 12.789062 0.015625 12.25 0.015625 Z M 4.890625 -11.09375 C 4.890625 -10.632812 5 -10.117188 5.21875 -9.546875 C 5.8125 -9.929688 6.253906 -10.25 6.546875 -10.5 C 6.847656 -10.75 7 -10.988281 7 -11.21875 C 7 -11.769531 6.6875 -12.046875 6.0625 -12.046875 C 5.28125 -12.046875 4.890625 -11.726562 4.890625 -11.09375 Z M 5.484375 -2.65625 C 5.796875 -2.65625 6.078125 -2.679688 6.328125 -2.734375 C 5.597656 -3.390625 4.90625 -4.171875 4.25 -5.078125 C 3.957031 -4.710938 3.8125 -4.332031 3.8125 -3.9375 C 3.8125 -3.082031 4.367188 -2.65625 5.484375 -2.65625 Z M 5.484375 -2.65625 "/></g></g><g style="fill:#000000;fill-opacity:1;"><g transform="translate(296.403778, 93.743679)"><path style="stroke:none" d=""/></g></g><g style="fill:#000000;fill-opacity:1;"><g transform="translate(305.466471, 93.743679)"><path style="stroke:none" d="M 11.390625 -2.34375 C 11.578125 -1.894531 11.671875 -1.566406 11.671875 -1.359375 C 11.671875 -0.878906 11.28125 -0.476562 10.5 -0.15625 C 10.09375 0.0195312 9.765625 0.109375 9.515625 0.109375 C 9.273438 0.109375 9.078125 0.0507812 8.921875 -0.0625 C 8.765625 -0.1875 8.644531 -0.3125 8.5625 -0.4375 C 8.4375 -0.675781 7.945312 -1.816406 7.09375 -3.859375 L 6.5 -3.828125 L 4.109375 -3.828125 L 4.109375 -1.6875 C 4.109375 -1.394531 4.097656 -1.175781 4.078125 -1.03125 C 4.066406 -0.882812 4.007812 -0.71875 3.90625 -0.53125 C 3.726562 -0.1875 3.234375 -0.015625 2.421875 -0.015625 C 1.535156 -0.015625 1.019531 -0.25 0.875 -0.71875 C 0.800781 -0.9375 0.765625 -1.265625 0.765625 -1.703125 L 0.765625 -12.21875 C 0.765625 -12.507812 0.769531 -12.726562 0.78125 -12.875 C 0.800781 -13.019531 0.863281 -13.1875 0.96875 -13.375 C 1.144531 -13.71875 1.632812 -13.890625 2.4375 -13.890625 L 6.53125 -13.890625 C 7.644531 -13.890625 8.726562 -13.484375 9.78125 -12.671875 C 10.28125 -12.285156 10.695312 -11.753906 11.03125 -11.078125 C 11.363281 -10.410156 11.53125 -9.664062 11.53125 -8.84375 C 11.53125 -7.414062 11.054688 -6.242188 10.109375 -5.328125 C 10.378906 -4.660156 10.804688 -3.664062 11.390625 -2.34375 Z M 4.109375 -7.1875 L 6.53125 -7.1875 C 6.90625 -7.1875 7.273438 -7.320312 7.640625 -7.59375 C 8.003906 -7.875 8.1875 -8.289062 8.1875 -8.84375 C 8.1875 -9.40625 8.003906 -9.828125 7.640625 -10.109375 C 7.273438 -10.390625 6.894531 -10.53125 6.5 -10.53125 L 4.109375 -10.53125 Z M 4.109375 -7.1875 "/></g></g><g style="fill:#000000;fill-opacity:1;"><g transform="translate(321.695225, 93.743679)"><path style="stroke:none" d="M 4.109375 -3.359375 L 9.953125 -3.359375 C 10.242188 -3.359375 10.460938 -3.347656 10.609375 -3.328125 C 10.753906 -3.304688 10.921875 -3.242188 11.109375 -3.140625 C 11.453125 -2.960938 11.625 -2.472656 11.625 -1.671875 C 11.625 -0.785156 11.390625 -0.265625 10.921875 -0.109375 C 10.703125 -0.0351562 10.375 0 9.9375 0 L 2.421875 0 C 1.535156 0 1.019531 -0.238281 0.875 -0.71875 C 0.800781 -0.925781 0.765625 -1.25 0.765625 -1.6875 L 0.765625 -12.21875 C 0.765625 -12.863281 0.882812 -13.300781 1.125 -13.53125 C 1.363281 -13.769531 1.816406 -13.890625 2.484375 -13.890625 L 9.953125 -13.890625 C 10.242188 -13.890625 10.460938 -13.878906 10.609375 -13.859375 C 10.753906 -13.835938 10.921875 -13.78125 11.109375 -13.6875 C 11.453125 -13.507812 11.625 -13.015625 11.625 -12.203125 C 11.625 -11.316406 11.390625 -10.800781 10.921875 -10.65625 C 10.703125 -10.570312 10.375 -10.53125 9.9375 -10.53125 L 4.109375 -10.53125 L 4.109375 -8.625 L 7.859375 -8.625 C 8.148438 -8.625 8.367188 -8.613281 8.515625 -8.59375 C 8.660156 -8.570312 8.828125 -8.515625 9.015625 -8.421875 C 9.359375 -8.242188 9.53125 -7.75 9.53125 -6.9375 C 9.53125 -6.050781 9.289062 -5.53125 8.8125 -5.375 C 8.59375 -5.300781 8.265625 -5.265625 7.828125 -5.265625 L 4.109375 -5.265625 Z M 4.109375 -3.359375 "/></g></g><g style="fill:#000000;fill-opacity:1;"><g transform="translate(338.056679, 93.743679)"><path style="stroke:none" d="M 9.4375 -3.640625 L 9.78125 -3.890625 C 10.207031 -4.140625 10.507812 -4.265625 10.6875 -4.265625 C 11.082031 -4.265625 11.503906 -3.910156 11.953125 -3.203125 C 12.234375 -2.765625 12.375 -2.410156 12.375 -2.140625 C 12.375 -1.878906 12.285156 -1.660156 12.109375 -1.484375 C 11.941406 -1.304688 11.742188 -1.144531 11.515625 -1 C 11.296875 -0.863281 11.082031 -0.734375 10.875 -0.609375 C 10.664062 -0.484375 10.238281 -0.316406 9.59375 -0.109375 C 8.945312 0.0859375 8.320312 0.1875 7.71875 0.1875 C 7.125 0.1875 6.519531 0.109375 5.90625 -0.046875 C 5.289062 -0.203125 4.65625 -0.46875 4 -0.84375 C 3.351562 -1.21875 2.769531 -1.671875 2.25 -2.203125 C 1.738281 -2.742188 1.3125 -3.429688 0.96875 -4.265625 C 0.632812 -5.109375 0.46875 -6.019531 0.46875 -7 C 0.46875 -7.988281 0.628906 -8.882812 0.953125 -9.6875 C 1.285156 -10.488281 1.707031 -11.148438 2.21875 -11.671875 C 2.738281 -12.203125 3.328125 -12.644531 3.984375 -13 C 5.222656 -13.6875 6.46875 -14.03125 7.71875 -14.03125 C 8.3125 -14.03125 8.910156 -13.9375 9.515625 -13.75 C 10.128906 -13.5625 10.597656 -13.375 10.921875 -13.1875 L 11.375 -12.921875 C 11.601562 -12.785156 11.78125 -12.671875 11.90625 -12.578125 C 12.226562 -12.316406 12.390625 -12.019531 12.390625 -11.6875 C 12.390625 -11.351562 12.257812 -11 12 -10.625 C 11.507812 -9.945312 11.066406 -9.609375 10.671875 -9.609375 C 10.441406 -9.609375 10.117188 -9.75 9.703125 -10.03125 C 9.171875 -10.457031 8.460938 -10.671875 7.578125 -10.671875 C 6.753906 -10.671875 5.945312 -10.382812 5.15625 -9.8125 C 4.78125 -9.539062 4.460938 -9.148438 4.203125 -8.640625 C 3.953125 -8.140625 3.828125 -7.566406 3.828125 -6.921875 C 3.828125 -6.285156 3.953125 -5.710938 4.203125 -5.203125 C 4.460938 -4.703125 4.785156 -4.304688 5.171875 -4.015625 C 5.941406 -3.460938 6.742188 -3.1875 7.578125 -3.1875 C 7.972656 -3.1875 8.34375 -3.234375 8.6875 -3.328125 C 9.039062 -3.429688 9.289062 -3.535156 9.4375 -3.640625 Z M 9.4375 -3.640625 "/></g></g><g style="fill:#000000;fill-opacity:1;"><g transform="translate(355.195403, 93.743679)"><path style="stroke:none" d="M 0.765625 -12.21875 C 0.765625 -12.507812 0.769531 -12.726562 0.78125 -12.875 C 0.800781 -13.019531 0.863281 -13.1875 0.96875 -13.375 C 1.144531 -13.71875 1.632812 -13.890625 2.4375 -13.890625 C 3.320312 -13.890625 3.847656 -13.65625 4.015625 -13.1875 C 4.078125 -12.976562 4.109375 -12.648438 4.109375 -12.203125 L 4.109375 -1.671875 C 4.109375 -1.367188 4.097656 -1.144531 4.078125 -1 C 4.066406 -0.863281 4.007812 -0.703125 3.90625 -0.515625 C 3.726562 -0.171875 3.234375 0 2.421875 0 C 1.535156 0 1.019531 -0.238281 0.875 -0.71875 C 0.800781 -0.925781 0.765625 -1.25 0.765625 -1.6875 Z M 0.765625 -12.21875 "/></g></g><g style="fill:#000000;fill-opacity:1;"><g transform="translate(364.333931, 93.743679)"><path style="stroke:none" d="M 11 -11.078125 C 11.332031 -10.410156 11.5 -9.664062 11.5 -8.84375 C 11.5 -8.03125 11.332031 -7.289062 11 -6.625 C 10.675781 -5.957031 10.253906 -5.429688 9.734375 -5.046875 C 8.691406 -4.234375 7.609375 -3.828125 6.484375 -3.828125 L 4.109375 -3.828125 L 4.109375 -1.6875 C 4.109375 -1.394531 4.097656 -1.175781 4.078125 -1.03125 C 4.066406 -0.882812 4.007812 -0.71875 3.90625 -0.53125 C 3.726562 -0.1875 3.234375 -0.015625 2.421875 -0.015625 C 1.535156 -0.015625 1.019531 -0.25 0.875 -0.71875 C 0.800781 -0.9375 0.765625 -1.265625 0.765625 -1.703125 L 0.765625 -12.21875 C 0.765625 -12.507812 0.769531 -12.726562 0.78125 -12.875 C 0.800781 -13.019531 0.863281 -13.1875 0.96875 -13.375 C 1.144531 -13.71875 1.632812 -13.890625 2.4375 -13.890625 L 6.5 -13.890625 C 7.613281 -13.890625 8.691406 -13.484375 9.734375 -12.671875 C 10.253906 -12.285156 10.675781 -11.753906 11 -11.078125 Z M 6.5 -7.1875 C 6.875 -7.1875 7.242188 -7.320312 7.609375 -7.59375 C 7.984375 -7.875 8.171875 -8.289062 8.171875 -8.84375 C 8.171875 -9.40625 7.984375 -9.828125 7.609375 -10.109375 C 7.242188 -10.390625 6.867188 -10.53125 6.484375 -10.53125 L 4.109375 -10.53125 L 4.109375 -7.1875 Z M 6.5 -7.1875 "/></g></g><g style="fill:#000000;fill-opacity:1;"><g transform="translate(380.581655, 93.743679)"><path style="stroke:none" d="M 4.109375 -3.359375 L 9.953125 -3.359375 C 10.242188 -3.359375 10.460938 -3.347656 10.609375 -3.328125 C 10.753906 -3.304688 10.921875 -3.242188 11.109375 -3.140625 C 11.453125 -2.960938 11.625 -2.472656 11.625 -1.671875 C 11.625 -0.785156 11.390625 -0.265625 10.921875 -0.109375 C 10.703125 -0.0351562 10.375 0 9.9375 0 L 2.421875 0 C 1.535156 0 1.019531 -0.238281 0.875 -0.71875 C 0.800781 -0.925781 0.765625 -1.25 0.765625 -1.6875 L 0.765625 -12.21875 C 0.765625 -12.863281 0.882812 -13.300781 1.125 -13.53125 C 1.363281 -13.769531 1.816406 -13.890625 2.484375 -13.890625 L 9.953125 -13.890625 C 10.242188 -13.890625 10.460938 -13.878906 10.609375 -13.859375 C 10.753906 -13.835938 10.921875 -13.78125 11.109375 -13.6875 C 11.453125 -13.507812 11.625 -13.015625 11.625 -12.203125 C 11.625 -11.316406 11.390625 -10.800781 10.921875 -10.65625 C 10.703125 -10.570312 10.375 -10.53125 9.9375 -10.53125 L 4.109375 -10.53125 L 4.109375 -8.625 L 7.859375 -8.625 C 8.148438 -8.625 8.367188 -8.613281 8.515625 -8.59375 C 8.660156 -8.570312 8.828125 -8.515625 9.015625 -8.421875 C 9.359375 -8.242188 9.53125 -7.75 9.53125 -6.9375 C 9.53125 -6.050781 9.289062 -5.53125 8.8125 -5.375 C 8.59375 -5.300781 8.265625 -5.265625 7.828125 -5.265625 L 4.109375 -5.265625 Z M 4.109375 -3.359375 "/></g></g><g style="fill:#3bb77e;fill-opacity:1;"><g transform="translate(129.574885, 67.718979)"><path style="stroke:none" d="M 19.90625 -27.796875 C 20.488281 -27.796875 20.925781 -27.773438 21.21875 -27.734375 C 21.507812 -27.703125 21.835938 -27.582031 22.203125 -27.375 C 22.566406 -27.175781 22.820312 -26.835938 22.96875 -26.359375 C 23.125 -25.878906 23.203125 -25.234375 23.203125 -24.421875 C 23.203125 -23.609375 23.125 -22.960938 22.96875 -22.484375 C 22.820312 -22.003906 22.554688 -21.671875 22.171875 -21.484375 C 21.796875 -21.296875 21.460938 -21.179688 21.171875 -21.140625 C 20.890625 -21.097656 20.441406 -21.078125 19.828125 -21.078125 L 8.234375 -21.078125 L 8.234375 -17.25 L 15.703125 -17.25 C 16.304688 -17.25 16.753906 -17.226562 17.046875 -17.1875 C 17.335938 -17.15625 17.671875 -17.039062 18.046875 -16.84375 C 18.703125 -16.457031 19.03125 -15.457031 19.03125 -13.84375 C 19.03125 -12.070312 18.550781 -11.019531 17.59375 -10.6875 C 17.1875 -10.5625 16.539062 -10.5 15.65625 -10.5 L 8.234375 -10.5 L 8.234375 -3.34375 C 8.234375 -2.726562 8.210938 -2.28125 8.171875 -2 C 8.128906 -1.726562 8.007812 -1.40625 7.8125 -1.03125 C 7.457031 -0.34375 6.472656 0 4.859375 0 C 3.085938 0 2.050781 -0.476562 1.75 -1.4375 C 1.59375 -1.84375 1.515625 -2.488281 1.515625 -3.375 L 1.515625 -24.453125 C 1.515625 -25.742188 1.753906 -26.625 2.234375 -27.09375 C 2.710938 -27.5625 3.625 -27.796875 4.96875 -27.796875 Z M 19.90625 -27.796875 "/></g></g><g style="fill:#3bb77e;fill-opacity:1;"><g transform="translate(155.433704, 67.718979)"><path style="stroke:none" d="M 14.5625 -28.140625 C 18.300781 -28.140625 21.546875 -26.785156 24.296875 -24.078125 C 27.054688 -21.367188 28.4375 -18.007812 28.4375 -14 C 28.4375 -10 27.117188 -6.585938 24.484375 -3.765625 C 21.859375 -0.953125 18.625 0.453125 14.78125 0.453125 C 10.945312 0.453125 7.679688 -0.9375 4.984375 -3.71875 C 2.296875 -6.5 0.953125 -9.8125 0.953125 -13.65625 C 0.953125 -15.75 1.328125 -17.710938 2.078125 -19.546875 C 2.835938 -21.378906 3.847656 -22.914062 5.109375 -24.15625 C 6.378906 -25.394531 7.835938 -26.367188 9.484375 -27.078125 C 11.128906 -27.785156 12.820312 -28.140625 14.5625 -28.140625 Z M 7.65625 -13.84375 C 7.65625 -11.59375 8.378906 -9.765625 9.828125 -8.359375 C 11.285156 -6.953125 12.910156 -6.25 14.703125 -6.25 C 16.503906 -6.25 18.125 -6.929688 19.5625 -8.296875 C 21.007812 -9.671875 21.734375 -11.503906 21.734375 -13.796875 C 21.734375 -16.097656 21.003906 -17.941406 19.546875 -19.328125 C 18.097656 -20.722656 16.472656 -21.421875 14.671875 -21.421875 C 12.878906 -21.421875 11.257812 -20.71875 9.8125 -19.3125 C 8.375 -17.914062 7.65625 -16.09375 7.65625 -13.84375 Z M 7.65625 -13.84375 "/></g></g><g style="fill:#3bb77e;fill-opacity:1;"><g transform="translate(186.524881, 67.718979)"><path style="stroke:none" d="M 14.5625 -28.140625 C 18.300781 -28.140625 21.546875 -26.785156 24.296875 -24.078125 C 27.054688 -21.367188 28.4375 -18.007812 28.4375 -14 C 28.4375 -10 27.117188 -6.585938 24.484375 -3.765625 C 21.859375 -0.953125 18.625 0.453125 14.78125 0.453125 C 10.945312 0.453125 7.679688 -0.9375 4.984375 -3.71875 C 2.296875 -6.5 0.953125 -9.8125 0.953125 -13.65625 C 0.953125 -15.75 1.328125 -17.710938 2.078125 -19.546875 C 2.835938 -21.378906 3.847656 -22.914062 5.109375 -24.15625 C 6.378906 -25.394531 7.835938 -26.367188 9.484375 -27.078125 C 11.128906 -27.785156 12.820312 -28.140625 14.5625 -28.140625 Z M 7.65625 -13.84375 C 7.65625 -11.59375 8.378906 -9.765625 9.828125 -8.359375 C 11.285156 -6.953125 12.910156 -6.25 14.703125 -6.25 C 16.503906 -6.25 18.125 -6.929688 19.5625 -8.296875 C 21.007812 -9.671875 21.734375 -11.503906 21.734375 -13.796875 C 21.734375 -16.097656 21.003906 -17.941406 19.546875 -19.328125 C 18.097656 -20.722656 16.472656 -21.421875 14.671875 -21.421875 C 12.878906 -21.421875 11.257812 -20.71875 9.8125 -19.3125 C 8.375 -17.914062 7.65625 -16.09375 7.65625 -13.84375 Z M 7.65625 -13.84375 "/></g></g><g style="fill:#3bb77e;fill-opacity:1;"><g transform="translate(217.616059, 67.718979)"><path style="stroke:none" d="M 4.890625 -27.828125 L 11.90625 -27.796875 C 15.570312 -27.796875 18.796875 -26.472656 21.578125 -23.828125 C 24.359375 -21.191406 25.75 -17.945312 25.75 -14.09375 C 25.75 -10.238281 24.390625 -6.929688 21.671875 -4.171875 C 18.953125 -1.410156 15.660156 -0.03125 11.796875 -0.03125 L 4.859375 -0.03125 C 3.316406 -0.03125 2.351562 -0.347656 1.96875 -0.984375 C 1.664062 -1.515625 1.515625 -2.320312 1.515625 -3.40625 L 1.515625 -24.5 C 1.515625 -25.101562 1.53125 -25.539062 1.5625 -25.8125 C 1.601562 -26.09375 1.726562 -26.425781 1.9375 -26.8125 C 2.289062 -27.488281 3.273438 -27.828125 4.890625 -27.828125 Z M 11.90625 -6.75 C 13.726562 -6.75 15.367188 -7.425781 16.828125 -8.78125 C 18.296875 -10.132812 19.03125 -11.832031 19.03125 -13.875 C 19.03125 -15.925781 18.316406 -17.640625 16.890625 -19.015625 C 15.460938 -20.390625 13.789062 -21.078125 11.875 -21.078125 L 8.234375 -21.078125 L 8.234375 -6.75 Z M 11.90625 -6.75 "/></g></g><g style="fill:#3bb77e;fill-opacity:1;"><g transform="translate(246.015221, 67.718979)"><path style="stroke:none" d=""/></g></g><g style="fill:#3bb77e;fill-opacity:1;"><g transform="translate(257.314435, 67.718979)"><path style="stroke:none" d="M 18.6875 -26.765625 C 18.894531 -27.148438 19.238281 -27.414062 19.71875 -27.5625 C 20.195312 -27.71875 20.800781 -27.796875 21.53125 -27.796875 C 22.269531 -27.796875 22.851562 -27.734375 23.28125 -27.609375 C 23.707031 -27.484375 24.035156 -27.332031 24.265625 -27.15625 C 24.492188 -26.976562 24.671875 -26.722656 24.796875 -26.390625 C 24.921875 -25.960938 24.984375 -25.304688 24.984375 -24.421875 L 24.984375 -3.375 C 24.984375 -2.789062 24.960938 -2.351562 24.921875 -2.0625 C 24.890625 -1.769531 24.773438 -1.4375 24.578125 -1.0625 C 24.222656 -0.375 23.234375 -0.03125 21.609375 -0.03125 C 19.847656 -0.03125 18.8125 -0.5 18.5 -1.4375 C 18.351562 -1.863281 18.28125 -2.519531 18.28125 -3.40625 L 18.28125 -11.109375 L 8.234375 -11.109375 L 8.234375 -3.375 C 8.234375 -2.789062 8.210938 -2.351562 8.171875 -2.0625 C 8.128906 -1.769531 8.007812 -1.4375 7.8125 -1.0625 C 7.457031 -0.375 6.472656 -0.03125 4.859375 -0.03125 C 3.085938 -0.03125 2.050781 -0.5 1.75 -1.4375 C 1.59375 -1.863281 1.515625 -2.519531 1.515625 -3.40625 L 1.515625 -24.453125 C 1.515625 -25.035156 1.53125 -25.472656 1.5625 -25.765625 C 1.601562 -26.054688 1.726562 -26.390625 1.9375 -26.765625 C 2.289062 -27.453125 3.273438 -27.796875 4.890625 -27.796875 C 6.660156 -27.796875 7.710938 -27.328125 8.046875 -26.390625 C 8.171875 -25.960938 8.234375 -25.304688 8.234375 -24.421875 L 8.234375 -16.6875 L 18.28125 -16.6875 L 18.28125 -24.453125 C 18.28125 -25.035156 18.296875 -25.472656 18.328125 -25.765625 C 18.367188 -26.054688 18.488281 -26.390625 18.6875 -26.765625 Z M 18.6875 -26.765625 "/></g></g><g style="fill:#3bb77e;fill-opacity:1;"><g transform="translate(285.52402, 67.718979)"><path style="stroke:none" d="M 17.5625 -25.828125 L 27.796875 -4.671875 C 28.222656 -3.804688 28.4375 -3.160156 28.4375 -2.734375 C 28.4375 -1.816406 27.703125 -0.992188 26.234375 -0.265625 C 25.378906 0.160156 24.703125 0.375 24.203125 0.375 C 23.710938 0.375 23.3125 0.257812 23 0.03125 C 22.6875 -0.1875 22.457031 -0.421875 22.3125 -0.671875 C 22.175781 -0.929688 21.984375 -1.3125 21.734375 -1.8125 L 19.75 -5.921875 L 9.25 -5.921875 L 7.28125 -1.8125 C 7.03125 -1.3125 6.832031 -0.945312 6.6875 -0.71875 C 6.550781 -0.488281 6.320312 -0.253906 6 -0.015625 C 5.6875 0.222656 5.285156 0.34375 4.796875 0.34375 C 4.304688 0.34375 3.628906 0.128906 2.765625 -0.296875 C 1.296875 -1.003906 0.5625 -1.816406 0.5625 -2.734375 C 0.5625 -3.160156 0.78125 -3.804688 1.21875 -4.671875 L 11.453125 -25.859375 C 11.734375 -26.441406 12.15625 -26.910156 12.71875 -27.265625 C 13.289062 -27.617188 13.894531 -27.796875 14.53125 -27.796875 C 15.894531 -27.796875 16.90625 -27.140625 17.5625 -25.828125 Z M 14.484375 -16.71875 L 11.984375 -11.53125 L 17.03125 -11.53125 Z M 14.484375 -16.71875 "/></g></g><g style="fill:#3bb77e;fill-opacity:1;"><g transform="translate(316.236042, 67.718979)"><path style="stroke:none" d="M 26.890625 -27.375 C 28.378906 -26.644531 29.125 -25.835938 29.125 -24.953125 C 29.125 -24.546875 28.9375 -23.9375 28.5625 -23.125 L 18.09375 -1.890625 C 17.8125 -1.335938 17.382812 -0.890625 16.8125 -0.546875 C 16.25 -0.203125 15.664062 -0.03125 15.0625 -0.03125 L 14.671875 -0.03125 C 14.046875 -0.03125 13.445312 -0.203125 12.875 -0.546875 C 12.300781 -0.890625 11.878906 -1.335938 11.609375 -1.890625 L 1.140625 -23.125 C 0.753906 -23.9375 0.5625 -24.546875 0.5625 -24.953125 C 0.5625 -25.835938 1.3125 -26.644531 2.8125 -27.375 C 3.644531 -27.8125 4.28125 -28.03125 4.71875 -28.03125 C 5.164062 -28.03125 5.5 -27.976562 5.71875 -27.875 C 5.945312 -27.769531 6.164062 -27.59375 6.375 -27.34375 C 6.601562 -27.039062 6.8125 -26.703125 7 -26.328125 C 7.1875 -25.960938 7.671875 -24.914062 8.453125 -23.1875 C 9.234375 -21.457031 10.070312 -19.617188 10.96875 -17.671875 C 11.875 -15.722656 12.722656 -13.882812 13.515625 -12.15625 C 14.316406 -10.425781 14.765625 -9.457031 14.859375 -9.25 L 22.453125 -25.859375 C 22.648438 -26.335938 22.828125 -26.71875 22.984375 -27 C 23.429688 -27.6875 23.984375 -28.03125 24.640625 -28.03125 C 25.304688 -28.03125 26.054688 -27.8125 26.890625 -27.375 Z M 26.890625 -27.375 "/></g></g><g style="fill:#3bb77e;fill-opacity:1;"><g transform="translate(347.63055, 67.718979)"><path style="stroke:none" d="M 8.234375 -6.71875 L 19.90625 -6.71875 C 20.488281 -6.71875 20.925781 -6.695312 21.21875 -6.65625 C 21.507812 -6.613281 21.84375 -6.492188 22.21875 -6.296875 C 22.90625 -5.941406 23.25 -4.957031 23.25 -3.34375 C 23.25 -1.570312 22.78125 -0.535156 21.84375 -0.234375 C 21.414062 -0.078125 20.757812 0 19.875 0 L 4.859375 0 C 3.085938 0 2.050781 -0.476562 1.75 -1.4375 C 1.59375 -1.84375 1.515625 -2.488281 1.515625 -3.375 L 1.515625 -24.453125 C 1.515625 -25.742188 1.753906 -26.625 2.234375 -27.09375 C 2.710938 -27.5625 3.625 -27.796875 4.96875 -27.796875 L 19.90625 -27.796875 C 20.488281 -27.796875 20.925781 -27.773438 21.21875 -27.734375 C 21.507812 -27.703125 21.84375 -27.582031 22.21875 -27.375 C 22.90625 -27.019531 23.25 -26.035156 23.25 -24.421875 C 23.25 -22.648438 22.78125 -21.613281 21.84375 -21.3125 C 21.414062 -21.15625 20.757812 -21.078125 19.875 -21.078125 L 8.234375 -21.078125 L 8.234375 -17.25 L 15.734375 -17.25 C 16.316406 -17.25 16.753906 -17.226562 17.046875 -17.1875 C 17.335938 -17.15625 17.671875 -17.039062 18.046875 -16.84375 C 18.734375 -16.488281 19.078125 -15.5 19.078125 -13.875 C 19.078125 -12.101562 18.597656 -11.066406 17.640625 -10.765625 C 17.203125 -10.617188 16.539062 -10.546875 15.65625 -10.546875 L 8.234375 -10.546875 Z M 8.234375 -6.71875 "/></g></g><g style="fill:#3bb77e;fill-opacity:1;"><g transform="translate(373.527253, 67.718979)"><path style="stroke:none" d="M 19.46875 -26.625 C 19.707031 -27.070312 20.066406 -27.375 20.546875 -27.53125 C 21.035156 -27.6875 21.640625 -27.765625 22.359375 -27.765625 C 23.078125 -27.765625 23.65625 -27.695312 24.09375 -27.5625 C 24.539062 -27.4375 24.867188 -27.285156 25.078125 -27.109375 C 25.296875 -26.929688 25.457031 -26.664062 25.5625 -26.3125 C 25.707031 -25.914062 25.78125 -25.273438 25.78125 -24.390625 L 25.78125 -3.34375 C 25.78125 -2.726562 25.757812 -2.28125 25.71875 -2 C 25.6875 -1.726562 25.570312 -1.40625 25.375 -1.03125 C 25.019531 -0.34375 24.03125 0 22.40625 0 C 21.425781 0 20.742188 -0.0703125 20.359375 -0.21875 C 19.984375 -0.375 19.671875 -0.617188 19.421875 -0.953125 C 13.734375 -8.535156 9.988281 -13.488281 8.1875 -15.8125 L 8.1875 -3.34375 C 8.1875 -2.726562 8.164062 -2.28125 8.125 -2 C 8.09375 -1.726562 7.976562 -1.40625 7.78125 -1.03125 C 7.425781 -0.34375 6.4375 0 4.8125 0 C 3.25 0 2.289062 -0.34375 1.9375 -1.03125 C 1.726562 -1.40625 1.601562 -1.742188 1.5625 -2.046875 C 1.53125 -2.347656 1.515625 -2.789062 1.515625 -3.375 L 1.515625 -24.53125 C 1.515625 -25.488281 1.632812 -26.1875 1.875 -26.625 C 2.113281 -27.070312 2.472656 -27.375 2.953125 -27.53125 C 3.429688 -27.6875 4.050781 -27.765625 4.8125 -27.765625 C 5.570312 -27.765625 6.171875 -27.691406 6.609375 -27.546875 C 7.054688 -27.410156 7.367188 -27.253906 7.546875 -27.078125 C 7.648438 -27.003906 7.941406 -26.675781 8.421875 -26.09375 C 13.753906 -18.832031 17.316406 -14.039062 19.109375 -11.71875 L 19.109375 -24.53125 C 19.109375 -25.488281 19.226562 -26.1875 19.46875 -26.625 Z M 19.46875 -26.625 "/></g></g><g clip-rule="nonzero" clip-path="url(#379b16ec85)"><path style=" stroke:none;fill-rule:nonzero;fill:#ffffff;fill-opacity:1;" d="M 62.066406 117.105469 C 31.535156 117.105469 6.679688 92.25 6.679688 61.71875 C 6.679688 31.1875 31.535156 6.328125 62.066406 6.328125 C 92.597656 6.328125 117.453125 31.1875 117.453125 61.71875 C 117.453125 92.25 92.597656 117.105469 62.066406 117.105469 Z M 62.066406 7.148438 C 31.972656 7.148438 7.496094 31.621094 7.496094 61.71875 C 7.496094 91.8125 31.972656 116.289062 62.066406 116.289062 C 92.160156 116.289062 116.636719 91.8125 116.636719 61.71875 C 116.636719 31.621094 92.160156 7.148438 62.066406 7.148438 Z M 62.066406 7.148438 "/></g><g clip-rule="nonzero" clip-path="url(#c2daf7baf5)"><path style=" stroke:none;fill-rule:nonzero;fill:#ffffff;fill-opacity:1;" d="M 62.066406 117.105469 C 31.535156 117.105469 6.679688 92.25 6.679688 61.71875 C 6.679688 31.1875 31.535156 6.328125 62.066406 6.328125 C 92.597656 6.328125 117.453125 31.1875 117.453125 61.71875 C 117.453125 92.25 92.597656 117.105469 62.066406 117.105469 Z M 62.066406 7.148438 C 31.972656 7.148438 7.496094 31.621094 7.496094 61.71875 C 7.496094 91.8125 31.972656 116.289062 62.066406 116.289062 C 92.160156 116.289062 116.636719 91.8125 116.636719 61.71875 C 116.636719 31.621094 92.160156 7.148438 62.066406 7.148438 Z M 62.066406 7.148438 "/></g><g clip-rule="nonzero" clip-path="url(#e06476e9da)"><path style=" stroke:none;fill-rule:nonzero;fill:#ffffff;fill-opacity:1;" d="M 62.066406 117.105469 C 31.535156 117.105469 6.679688 92.25 6.679688 61.71875 C 6.679688 31.1875 31.535156 6.328125 62.066406 6.328125 C 92.597656 6.328125 117.453125 31.1875 117.453125 61.71875 C 117.453125 92.25 92.597656 117.105469 62.066406 117.105469 Z M 62.066406 7.148438 C 31.972656 7.148438 7.496094 31.621094 7.496094 61.71875 C 7.496094 91.8125 31.972656 116.289062 62.066406 116.289062 C 92.160156 116.289062 116.636719 91.8125 116.636719 61.71875 C 116.636719 31.621094 92.160156 7.148438 62.066406 7.148438 Z M 62.066406 7.148438 "/></g></g></svg>