<svg xmlns="http://www.w3.org/2000/svg" xmlns:xlink="http://www.w3.org/1999/xlink" width="500" zoomAndPan="magnify" viewBox="0 0 375 374.999991" height="500" preserveAspectRatio="xMidYMid meet" version="1.2"><defs><clipPath id="69601383e1"><path d="M 148.109375 315 L 223.859375 315 L 223.859375 375 L 148.109375 375 Z M 148.109375 315 "/></clipPath><clipPath id="eb3dc71292"><path d="M 175 301.007812 L 191 301.007812 L 191 315 L 175 315 Z M 175 301.007812 "/></clipPath><clipPath id="34337d29b5"><path d="M 19.21875 19.21875 L 124.96875 19.21875 L 124.96875 355.96875 L 19.21875 355.96875 Z M 19.21875 19.21875 "/></clipPath><clipPath id="510df1c10f"><path d="M 247.214844 19.21875 L 355.964844 19.21875 L 355.964844 355.96875 L 247.214844 355.96875 Z M 247.214844 19.21875 "/></clipPath><clipPath id="571d261084"><path d="M 19.21875 19.21875 L 355.96875 19.21875 L 355.96875 131.71875 L 19.21875 131.71875 Z M 19.21875 19.21875 "/></clipPath></defs><g id="d74b5e0410"><path style=" stroke:none;fill-rule:evenodd;fill:#3bb77e;fill-opacity:1;" d="M 187.5625 -0.0625 C 291.125 -0.0625 375.0625 83.886719 375.0625 187.4375 C 375.0625 266.46875 326.164062 334.074219 256.964844 361.667969 L 254.226562 302.585938 L 254.226562 302.472656 C 254.378906 290.785156 259.3125 281.582031 270.257812 276.949219 L 271.664062 276.386719 L 271.738281 276.359375 L 271.828125 276.324219 L 271.964844 276.273438 C 280.027344 273.007812 286.59375 268.613281 291.0625 261.007812 C 296.648438 251.527344 297.726562 238.898438 297.726562 228.152344 C 297.726562 207.488281 291.640625 183.09375 281.144531 165.226562 C 273.6875 152.535156 261.921875 139.691406 246.042969 139.691406 C 230.160156 139.691406 218.394531 152.535156 210.9375 165.226562 C 200.445312 183.09375 194.355469 207.488281 194.355469 228.152344 C 194.355469 238.910156 195.433594 251.539062 201.019531 261.007812 C 205.539062 268.664062 212.183594 273.070312 220.28125 276.335938 C 220.503906 276.421875 220.730469 276.523438 220.957031 276.609375 L 221.019531 276.609375 L 221.722656 276.914062 C 232.707031 281.53125 237.703125 290.632812 237.855469 302.472656 L 237.855469 302.585938 L 234.78125 368.949219 C 219.691406 372.867188 203.871094 374.949219 187.5625 374.949219 C 170.675781 374.949219 154.320312 372.703125 138.75 368.523438 L 135.875 306.390625 L 135.875 306.253906 C 136.027344 294.273438 141.136719 284.835938 152.347656 280.089844 L 153.777344 279.523438 L 153.828125 279.511719 L 153.878906 279.484375 L 154.042969 279.421875 C 161.953125 276.222656 168.40625 271.914062 172.796875 264.445312 C 178.308594 255.09375 179.363281 242.550781 179.363281 231.941406 C 179.363281 230.914062 179.328125 229.882812 179.265625 228.855469 C 179.226562 228.265625 179.175781 227.675781 179.101562 227.097656 L 179 226.230469 L 179.164062 225.640625 L 172.347656 146.335938 L 165.214844 146.347656 L 164.601562 230.160156 L 152.722656 231.339844 L 145.667969 136.605469 L 137.933594 137.070312 L 136.402344 232.507812 L 132.199219 232.683594 C 131.320312 232.722656 130.441406 232.734375 129.574219 232.734375 C 128.695312 232.734375 127.804688 232.722656 126.925781 232.683594 L 122.746094 232.507812 L 120.597656 137.070312 L 112.863281 136.617188 L 106.421875 231.351562 L 94.535156 230.171875 L 93.933594 146.347656 L 86.761719 146.347656 L 77.546875 225.679688 L 77.699219 226.242188 L 77.597656 227.085938 C 77.535156 227.675781 77.484375 228.265625 77.449219 228.855469 C 77.386719 229.882812 77.347656 230.914062 77.347656 231.941406 C 77.347656 242.550781 78.402344 255.09375 83.914062 264.445312 C 88.34375 271.980469 94.875 276.285156 102.832031 279.484375 C 103.019531 279.5625 103.210938 279.636719 103.386719 279.710938 L 103.449219 279.710938 L 104.277344 280.0625 C 115.511719 284.796875 120.671875 294.136719 120.835938 306.253906 L 120.835938 306.390625 L 118.273438 361.753906 C 48.988281 334.210938 0.0117188 266.554688 0.0117188 187.449219 C 0.0625 83.875 84 -0.0625 187.5625 -0.0625 "/><g clip-rule="nonzero" clip-path="url(#69601383e1)"><path style=" stroke:none;fill-rule:evenodd;fill:#ffffff;fill-opacity:1;" d="M 165.445312 364.945312 L 175.457031 364.945312 C 175.457031 367.710938 173.214844 369.953125 170.449219 369.953125 C 167.683594 369.953125 165.445312 367.710938 165.445312 364.945312 Z M 212.902344 359.9375 C 215.667969 359.9375 217.914062 362.179688 217.914062 364.945312 C 217.914062 367.710938 215.667969 369.953125 212.902344 369.953125 C 210.140625 369.953125 207.894531 367.707031 207.894531 364.945312 C 207.894531 363.929688 208.207031 362.933594 208.78125 362.097656 L 211.40625 365.425781 C 211.890625 366.089844 212.726562 366.382812 213.445312 365.96875 C 214.160156 365.554688 214.296875 364.699219 213.992188 363.933594 L 211.992188 360.023438 C 212.292969 359.96875 212.597656 359.9375 212.902344 359.9375 Z M 161.304688 326.457031 C 161.519531 326.476562 161.78125 326.617188 162.082031 326.824219 C 164.773438 328.671875 165.609375 333.890625 163.242188 336.257812 C 162.898438 336.601562 162.75 336.8125 162.75 337.402344 L 162.75 342.984375 C 162.75 344.035156 160.738281 344.035156 160.738281 342.980469 L 160.734375 335.925781 L 160.734375 327.597656 C 160.730469 326.722656 160.949219 326.425781 161.304688 326.457031 Z M 155.609375 326.457031 C 155.855469 326.453125 156.109375 326.671875 156.128906 327.097656 L 156.308594 331.320312 C 156.289062 331.941406 157.214844 331.941406 157.195312 331.320312 L 157.195312 327.234375 C 157.195312 326.707031 157.484375 326.558594 157.890625 327.054688 C 158.554688 327.855469 158.917969 329.660156 158.917969 330.953125 C 158.917969 332.675781 158.226562 334.242188 157.117188 334.980469 C 156.707031 335.25 156.621094 335.339844 156.621094 335.929688 L 156.621094 342.980469 C 156.621094 344.035156 154.597656 344.035156 154.597656 342.980469 L 154.597656 335.929688 C 154.578125 335.367188 154.582031 335.273438 154.097656 334.976562 C 152.972656 334.273438 152.296875 332.675781 152.296875 330.953125 C 152.296875 329.667969 152.667969 327.855469 153.324219 327.054688 C 153.738281 326.554688 154.023438 326.707031 154.023438 327.234375 L 154.023438 331.320312 C 154 331.941406 154.929688 331.941406 154.910156 331.320312 L 155.089844 327.128906 C 155.109375 326.679688 155.359375 326.457031 155.609375 326.457031 Z M 179.519531 315.65625 C 177.824219 315.695312 176.191406 316.570312 175.753906 318.097656 L 170.960938 334.710938 C 170.222656 337.292969 171.0625 340.753906 174.976562 340.753906 L 187.226562 340.753906 L 189.914062 354.984375 C 190.386719 357.488281 195.164062 357.53125 194.96875 354.976562 L 193.757812 338.886719 C 193.566406 336.304688 192.519531 335.339844 190.652344 335.089844 L 181.273438 333.667969 L 182.222656 325.691406 L 186.625 329.019531 C 187.542969 329.714844 187.972656 329.824219 189.023438 330.007812 L 194.386719 330.960938 C 194.953125 331.0625 195.207031 331.296875 195.585938 332.226562 L 203.570312 351.777344 C 205.382812 356.210938 203.96875 359.21875 198.191406 359.21875 L 187.890625 359.21875 C 183.429688 359.21875 181.054688 355.4375 182.503906 352.164062 L 184.625 347.398438 C 185.585938 345.238281 184.441406 342.96875 182.132812 342.96875 L 168.585938 342.96875 L 168.585938 322.167969 C 168.585938 319.144531 166.980469 318.253906 164.300781 318.253906 L 158.554688 318.253906 C 152.992188 318.253906 148.519531 322.726562 148.519531 328.289062 L 148.519531 344.726562 C 148.519531 346.507812 149.847656 347.945312 151.492188 347.945312 L 162.3125 347.945312 C 157.410156 351.027344 154.292969 357.0625 154.820312 362.367188 C 155.050781 364.667969 156.382812 364.945312 157.367188 364.945312 L 160.546875 364.945312 C 160.546875 370.410156 164.980469 374.847656 170.449219 374.847656 C 175.914062 374.847656 180.355469 370.410156 180.355469 364.945312 L 203 364.945312 C 203 370.410156 207.433594 374.847656 212.902344 374.847656 C 218.375 374.847656 222.804688 370.410156 222.804688 364.945312 C 222.800781 363.207031 222.34375 361.5 221.472656 359.996094 L 222.078125 360.089844 C 223.195312 360.261719 223.484375 358.898438 222.929688 357.699219 C 221.105469 353.71875 217.222656 351.105469 212.917969 350.890625 C 212.5 350.871094 212.117188 350.628906 212.117188 350.117188 L 212.117188 349.324219 C 212.117188 348.359375 212.125 347.578125 211.363281 346.539062 L 200.636719 331.597656 C 200.09375 330.660156 200.234375 330.140625 201.175781 330.140625 L 202.984375 330.140625 C 204.203125 330.140625 205.089844 329.886719 204.917969 328.46875 L 204.378906 324.910156 C 204.238281 323.800781 203.769531 323.042969 202.167969 323.042969 L 199.332031 323.042969 C 196.3125 323.042969 195.089844 325.136719 194.28125 326.234375 C 194.128906 326.4375 194.007812 326.613281 193.898438 326.769531 L 189.578125 325.398438 L 183.0625 317.164062 C 182.195312 316.097656 180.839844 315.625 179.519531 315.65625 Z M 179.519531 315.65625 "/></g><g clip-rule="nonzero" clip-path="url(#eb3dc71292)"><path style=" stroke:none;fill-rule:evenodd;fill:#ffffff;fill-opacity:1;" d="M 182.429688 301.222656 C 179.566406 301.039062 176.902344 302.734375 175.863281 305.410156 C 174.824219 308.09375 175.621094 311.164062 177.882812 312.933594 C 179.15625 313.929688 180.679688 314.628906 182.015625 314.640625 C 185.261719 314.652344 187.898438 312.003906 187.925781 308.765625 L 186.242188 308.863281 C 186.167969 311.152344 184.320312 312.96875 182.015625 312.96875 C 181.746094 312.96875 181.488281 312.945312 181.238281 312.894531 C 181.503906 312.519531 181.699219 312.035156 181.832031 311.472656 C 182.640625 308.089844 185.058594 308.039062 187.308594 307.875 C 187.960938 307.824219 188.835938 307.824219 189.609375 307.824219 C 190.945312 307.824219 190.988281 306.140625 189.84375 305.917969 L 188.3125 305.648438 C 187.890625 304.496094 187.164062 303.5 186.179688 302.683594 C 185.1875 301.867188 183.871094 301.316406 182.429688 301.222656 Z M 182.429688 301.222656 "/></g><g clip-rule="nonzero" clip-path="url(#34337d29b5)"><path style=" stroke:none;fill-rule:nonzero;fill:#ffffff;fill-opacity:1;" d="M 187.496094 355.769531 C 94.734375 355.769531 19.21875 280.253906 19.21875 187.496094 C 19.21875 94.734375 94.734375 19.21875 187.496094 19.21875 C 280.253906 19.21875 355.769531 94.734375 355.769531 187.496094 C 355.769531 280.253906 280.253906 355.769531 187.496094 355.769531 Z M 187.496094 21.707031 C 96.0625 21.707031 21.707031 96.0625 21.707031 187.496094 C 21.707031 278.925781 96.0625 353.285156 187.496094 353.285156 C 278.925781 353.285156 353.285156 278.925781 353.285156 187.496094 C 353.285156 96.0625 278.925781 21.707031 187.496094 21.707031 Z M 187.496094 21.707031 "/></g><g clip-rule="nonzero" clip-path="url(#510df1c10f)"><path style=" stroke:none;fill-rule:nonzero;fill:#ffffff;fill-opacity:1;" d="M 187.496094 355.769531 C 94.734375 355.769531 19.21875 280.253906 19.21875 187.496094 C 19.21875 94.734375 94.734375 19.21875 187.496094 19.21875 C 280.253906 19.21875 355.769531 94.734375 355.769531 187.496094 C 355.769531 280.253906 280.253906 355.769531 187.496094 355.769531 Z M 187.496094 21.707031 C 96.0625 21.707031 21.707031 96.0625 21.707031 187.496094 C 21.707031 278.925781 96.0625 353.285156 187.496094 353.285156 C 278.925781 353.285156 353.285156 278.925781 353.285156 187.496094 C 353.285156 96.0625 278.925781 21.707031 187.496094 21.707031 Z M 187.496094 21.707031 "/></g><g clip-rule="nonzero" clip-path="url(#571d261084)"><path style=" stroke:none;fill-rule:nonzero;fill:#ffffff;fill-opacity:1;" d="M 187.496094 355.769531 C 94.734375 355.769531 19.21875 280.253906 19.21875 187.496094 C 19.21875 94.734375 94.734375 19.21875 187.496094 19.21875 C 280.253906 19.21875 355.769531 94.734375 355.769531 187.496094 C 355.769531 280.253906 280.253906 355.769531 187.496094 355.769531 Z M 187.496094 21.707031 C 96.0625 21.707031 21.707031 96.0625 21.707031 187.496094 C 21.707031 278.925781 96.0625 353.285156 187.496094 353.285156 C 278.925781 353.285156 353.285156 278.925781 353.285156 187.496094 C 353.285156 96.0625 278.925781 21.707031 187.496094 21.707031 Z M 187.496094 21.707031 "/></g></g></svg>