<svg xmlns="http://www.w3.org/2000/svg" xmlns:xlink="http://www.w3.org/1999/xlink" width="748" zoomAndPan="magnify" viewBox="0 0 561 95.999999" height="128" preserveAspectRatio="xMidYMid meet" version="1.2"><defs/><g id="1a892814da"><g style="fill:#272726;fill-opacity:1;"><g transform="translate(139.680866, 90.155262)"><path style="stroke:none" d="M 2.734375 -15.59375 L 6.671875 -15.578125 C 8.722656 -15.578125 10.523438 -14.835938 12.078125 -13.359375 C 13.640625 -11.878906 14.421875 -10.054688 14.421875 -7.890625 C 14.421875 -5.734375 13.660156 -3.878906 12.140625 -2.328125 C 10.617188 -0.785156 8.773438 -0.015625 6.609375 -0.015625 L 2.71875 -0.015625 C 1.851562 -0.015625 1.316406 -0.191406 1.109375 -0.546875 C 0.929688 -0.847656 0.84375 -1.300781 0.84375 -1.90625 L 0.84375 -13.734375 C 0.84375 -14.066406 0.851562 -14.3125 0.875 -14.46875 C 0.894531 -14.625 0.960938 -14.8125 1.078125 -15.03125 C 1.273438 -15.40625 1.828125 -15.59375 2.734375 -15.59375 Z M 6.671875 -3.78125 C 7.691406 -3.78125 8.613281 -4.160156 9.4375 -4.921875 C 10.257812 -5.679688 10.671875 -6.632812 10.671875 -7.78125 C 10.671875 -8.925781 10.269531 -9.882812 9.46875 -10.65625 C 8.664062 -11.425781 7.726562 -11.8125 6.65625 -11.8125 L 4.609375 -11.8125 L 4.609375 -3.78125 Z M 6.671875 -3.78125 "/></g></g><g style="fill:#272726;fill-opacity:1;"><g transform="translate(159.419497, 90.155262)"><path style="stroke:none" d="M 4.609375 -3.765625 L 11.15625 -3.765625 C 11.476562 -3.765625 11.722656 -3.753906 11.890625 -3.734375 C 12.054688 -3.710938 12.242188 -3.644531 12.453125 -3.53125 C 12.835938 -3.332031 13.03125 -2.78125 13.03125 -1.875 C 13.03125 -0.875 12.765625 -0.289062 12.234375 -0.125 C 11.992188 -0.0390625 11.628906 0 11.140625 0 L 2.71875 0 C 1.726562 0 1.148438 -0.269531 0.984375 -0.8125 C 0.890625 -1.03125 0.84375 -1.390625 0.84375 -1.890625 L 0.84375 -13.703125 C 0.84375 -14.429688 0.976562 -14.925781 1.25 -15.1875 C 1.519531 -15.445312 2.03125 -15.578125 2.78125 -15.578125 L 11.15625 -15.578125 C 11.476562 -15.578125 11.722656 -15.566406 11.890625 -15.546875 C 12.054688 -15.523438 12.242188 -15.457031 12.453125 -15.34375 C 12.835938 -15.144531 13.03125 -14.59375 13.03125 -13.6875 C 13.03125 -12.695312 12.765625 -12.113281 12.234375 -11.9375 C 11.992188 -11.851562 11.628906 -11.8125 11.140625 -11.8125 L 4.609375 -11.8125 L 4.609375 -9.671875 L 8.8125 -9.671875 C 9.144531 -9.671875 9.390625 -9.660156 9.546875 -9.640625 C 9.710938 -9.617188 9.898438 -9.550781 10.109375 -9.4375 C 10.492188 -9.238281 10.6875 -8.6875 10.6875 -7.78125 C 10.6875 -6.789062 10.414062 -6.207031 9.875 -6.03125 C 9.632812 -5.945312 9.269531 -5.90625 8.78125 -5.90625 L 4.609375 -5.90625 Z M 4.609375 -3.765625 "/></g></g><g style="fill:#272726;fill-opacity:1;"><g transform="translate(177.755946, 90.155262)"><path style="stroke:none" d="M 4.609375 -3.140625 L 10.390625 -3.140625 C 10.859375 -3.140625 11.195312 -3.085938 11.40625 -2.984375 C 11.625 -2.878906 11.765625 -2.710938 11.828125 -2.484375 C 11.898438 -2.253906 11.9375 -1.953125 11.9375 -1.578125 C 11.9375 -1.203125 11.898438 -0.898438 11.828125 -0.671875 C 11.765625 -0.453125 11.644531 -0.300781 11.46875 -0.21875 C 11.207031 -0.0703125 10.84375 0 10.375 0 L 2.71875 0 C 1.726562 0 1.148438 -0.269531 0.984375 -0.8125 C 0.890625 -1.03125 0.84375 -1.390625 0.84375 -1.890625 L 0.84375 -13.703125 C 0.84375 -14.023438 0.851562 -14.269531 0.875 -14.4375 C 0.894531 -14.601562 0.960938 -14.789062 1.078125 -15 C 1.273438 -15.382812 1.828125 -15.578125 2.734375 -15.578125 C 3.734375 -15.578125 4.320312 -15.316406 4.5 -14.796875 C 4.570312 -14.546875 4.609375 -14.175781 4.609375 -13.6875 Z M 4.609375 -3.140625 "/></g></g><g style="fill:#272726;fill-opacity:1;"><g transform="translate(195.008887, 90.155262)"><path style="stroke:none" d="M 0.84375 -13.703125 C 0.84375 -14.023438 0.851562 -14.269531 0.875 -14.4375 C 0.894531 -14.601562 0.960938 -14.789062 1.078125 -15 C 1.273438 -15.382812 1.828125 -15.578125 2.734375 -15.578125 C 3.734375 -15.578125 4.320312 -15.316406 4.5 -14.796875 C 4.570312 -14.546875 4.609375 -14.175781 4.609375 -13.6875 L 4.609375 -1.875 C 4.609375 -1.53125 4.597656 -1.28125 4.578125 -1.125 C 4.554688 -0.96875 4.488281 -0.785156 4.375 -0.578125 C 4.175781 -0.191406 3.625 0 2.71875 0 C 1.726562 0 1.148438 -0.269531 0.984375 -0.8125 C 0.890625 -1.03125 0.84375 -1.390625 0.84375 -1.890625 Z M 0.84375 -13.703125 "/></g></g><g style="fill:#272726;fill-opacity:1;"><g transform="translate(205.250913, 90.155262)"><path style="stroke:none" d="M 15.0625 -15.34375 C 15.894531 -14.925781 16.3125 -14.472656 16.3125 -13.984375 C 16.3125 -13.753906 16.207031 -13.414062 16 -12.96875 L 10.140625 -1.0625 C 9.984375 -0.75 9.742188 -0.492188 9.421875 -0.296875 C 9.109375 -0.109375 8.78125 -0.015625 8.4375 -0.015625 L 8.21875 -0.015625 C 7.863281 -0.015625 7.523438 -0.109375 7.203125 -0.296875 C 6.890625 -0.492188 6.65625 -0.75 6.5 -1.0625 L 0.640625 -12.96875 C 0.421875 -13.414062 0.3125 -13.753906 0.3125 -13.984375 C 0.3125 -14.472656 0.734375 -14.925781 1.578125 -15.34375 C 2.046875 -15.582031 2.398438 -15.703125 2.640625 -15.703125 C 2.890625 -15.703125 3.078125 -15.671875 3.203125 -15.609375 C 3.335938 -15.554688 3.457031 -15.460938 3.5625 -15.328125 C 3.695312 -15.148438 3.816406 -14.957031 3.921875 -14.75 C 4.023438 -14.550781 4.296875 -13.960938 4.734375 -12.984375 C 5.171875 -12.015625 5.640625 -10.984375 6.140625 -9.890625 C 6.648438 -8.804688 7.128906 -7.78125 7.578125 -6.8125 C 8.023438 -5.84375 8.273438 -5.300781 8.328125 -5.1875 L 12.578125 -14.5 C 12.691406 -14.757812 12.789062 -14.96875 12.875 -15.125 C 13.132812 -15.507812 13.445312 -15.703125 13.8125 -15.703125 C 14.175781 -15.703125 14.59375 -15.582031 15.0625 -15.34375 Z M 15.0625 -15.34375 "/></g></g><g style="fill:#272726;fill-opacity:1;"><g transform="translate(226.667913, 90.155262)"><path style="stroke:none" d="M 4.609375 -3.765625 L 11.15625 -3.765625 C 11.476562 -3.765625 11.722656 -3.753906 11.890625 -3.734375 C 12.054688 -3.710938 12.242188 -3.644531 12.453125 -3.53125 C 12.835938 -3.332031 13.03125 -2.78125 13.03125 -1.875 C 13.03125 -0.875 12.765625 -0.289062 12.234375 -0.125 C 11.992188 -0.0390625 11.628906 0 11.140625 0 L 2.71875 0 C 1.726562 0 1.148438 -0.269531 0.984375 -0.8125 C 0.890625 -1.03125 0.84375 -1.390625 0.84375 -1.890625 L 0.84375 -13.703125 C 0.84375 -14.429688 0.976562 -14.925781 1.25 -15.1875 C 1.519531 -15.445312 2.03125 -15.578125 2.78125 -15.578125 L 11.15625 -15.578125 C 11.476562 -15.578125 11.722656 -15.566406 11.890625 -15.546875 C 12.054688 -15.523438 12.242188 -15.457031 12.453125 -15.34375 C 12.835938 -15.144531 13.03125 -14.59375 13.03125 -13.6875 C 13.03125 -12.695312 12.765625 -12.113281 12.234375 -11.9375 C 11.992188 -11.851562 11.628906 -11.8125 11.140625 -11.8125 L 4.609375 -11.8125 L 4.609375 -9.671875 L 8.8125 -9.671875 C 9.144531 -9.671875 9.390625 -9.660156 9.546875 -9.640625 C 9.710938 -9.617188 9.898438 -9.550781 10.109375 -9.4375 C 10.492188 -9.238281 10.6875 -8.6875 10.6875 -7.78125 C 10.6875 -6.789062 10.414062 -6.207031 9.875 -6.03125 C 9.632812 -5.945312 9.269531 -5.90625 8.78125 -5.90625 L 4.609375 -5.90625 Z M 4.609375 -3.765625 "/></g></g><g style="fill:#272726;fill-opacity:1;"><g transform="translate(245.004361, 90.155262)"><path style="stroke:none" d="M 12.765625 -2.640625 C 12.984375 -2.128906 13.09375 -1.757812 13.09375 -1.53125 C 13.09375 -0.988281 12.648438 -0.535156 11.765625 -0.171875 C 11.316406 0.0234375 10.953125 0.125 10.671875 0.125 C 10.398438 0.125 10.175781 0.0546875 10 -0.078125 C 9.820312 -0.210938 9.691406 -0.347656 9.609375 -0.484375 C 9.460938 -0.753906 8.910156 -2.035156 7.953125 -4.328125 L 7.28125 -4.296875 L 4.609375 -4.296875 L 4.609375 -1.890625 C 4.609375 -1.566406 4.597656 -1.320312 4.578125 -1.15625 C 4.554688 -0.988281 4.488281 -0.800781 4.375 -0.59375 C 4.175781 -0.207031 3.625 -0.015625 2.71875 -0.015625 C 1.726562 -0.015625 1.148438 -0.28125 0.984375 -0.8125 C 0.890625 -1.050781 0.84375 -1.414062 0.84375 -1.90625 L 0.84375 -13.703125 C 0.84375 -14.023438 0.851562 -14.269531 0.875 -14.4375 C 0.894531 -14.601562 0.960938 -14.789062 1.078125 -15 C 1.273438 -15.382812 1.828125 -15.578125 2.734375 -15.578125 L 7.328125 -15.578125 C 8.578125 -15.578125 9.789062 -15.125 10.96875 -14.21875 C 11.53125 -13.78125 11.992188 -13.1875 12.359375 -12.4375 C 12.734375 -11.6875 12.921875 -10.847656 12.921875 -9.921875 C 12.921875 -8.316406 12.390625 -7 11.328125 -5.96875 C 11.640625 -5.21875 12.117188 -4.109375 12.765625 -2.640625 Z M 4.609375 -8.046875 L 7.328125 -8.046875 C 7.742188 -8.046875 8.15625 -8.203125 8.5625 -8.515625 C 8.976562 -8.828125 9.1875 -9.296875 9.1875 -9.921875 C 9.1875 -10.546875 8.976562 -11.015625 8.5625 -11.328125 C 8.15625 -11.648438 7.726562 -11.8125 7.28125 -11.8125 L 4.609375 -11.8125 Z M 4.609375 -8.046875 "/></g></g><g style="fill:#272726;fill-opacity:1;"><g transform="translate(263.1921, 90.155262)"><path style="stroke:none" d="M 13.21875 -15.28125 C 13.914062 -14.800781 14.265625 -14.332031 14.265625 -13.875 C 14.265625 -13.601562 14.097656 -13.226562 13.765625 -12.75 L 9.1875 -5.890625 L 9.1875 -1.828125 C 9.1875 -1.503906 9.171875 -1.257812 9.140625 -1.09375 C 9.117188 -0.925781 9.050781 -0.738281 8.9375 -0.53125 C 8.832031 -0.320312 8.644531 -0.171875 8.375 -0.078125 C 8.101562 0.00390625 7.738281 0.046875 7.28125 0.046875 C 6.832031 0.046875 6.472656 0.00390625 6.203125 -0.078125 C 5.929688 -0.171875 5.738281 -0.328125 5.625 -0.546875 C 5.519531 -0.765625 5.453125 -0.953125 5.421875 -1.109375 C 5.398438 -1.273438 5.390625 -1.53125 5.390625 -1.875 L 5.390625 -5.890625 L 0.8125 -12.75 C 0.476562 -13.226562 0.3125 -13.601562 0.3125 -13.875 C 0.3125 -14.332031 0.625 -14.769531 1.25 -15.1875 C 1.875 -15.601562 2.320312 -15.8125 2.59375 -15.8125 C 2.863281 -15.8125 3.078125 -15.753906 3.234375 -15.640625 C 3.472656 -15.484375 3.726562 -15.191406 4 -14.765625 L 7.28125 -9.5 L 10.578125 -14.765625 C 10.847656 -15.191406 11.082031 -15.472656 11.28125 -15.609375 C 11.476562 -15.742188 11.707031 -15.8125 11.96875 -15.8125 C 12.238281 -15.8125 12.65625 -15.632812 13.21875 -15.28125 Z M 13.21875 -15.28125 "/></g></g><g style="fill:#272726;fill-opacity:1;"><g transform="translate(282.548329, 90.155262)"><path style="stroke:none" d=""/></g></g><g style="fill:#272726;fill-opacity:1;"><g transform="translate(292.705395, 90.155262)"><path style="stroke:none" d="M 13.734375 0.015625 C 12.492188 0.015625 11.273438 -0.300781 10.078125 -0.9375 C 8.722656 -0.195312 7.363281 0.171875 6 0.171875 C 2.351562 0.171875 0.53125 -1.34375 0.53125 -4.375 C 0.53125 -5.945312 1.34375 -7.40625 2.96875 -8.75 C 2.40625 -10.007812 2.125 -11.148438 2.125 -12.171875 C 2.125 -13.585938 2.546875 -14.632812 3.390625 -15.3125 C 4.242188 -16 5.382812 -16.34375 6.8125 -16.34375 C 8.25 -16.34375 9.332031 -16 10.0625 -15.3125 C 10.800781 -14.632812 11.171875 -13.707031 11.171875 -12.53125 C 11.171875 -11.539062 10.769531 -10.648438 9.96875 -9.859375 C 9.375 -9.265625 8.535156 -8.609375 7.453125 -7.890625 C 8.296875 -6.773438 9.203125 -5.835938 10.171875 -5.078125 C 10.578125 -5.691406 10.851562 -6.316406 11 -6.953125 C 11.144531 -7.578125 11.785156 -7.890625 12.921875 -7.890625 C 13.398438 -7.890625 13.765625 -7.820312 14.015625 -7.6875 C 14.265625 -7.5625 14.40625 -7.429688 14.4375 -7.296875 C 14.476562 -7.160156 14.488281 -6.988281 14.46875 -6.78125 C 14.414062 -5.695312 13.976562 -4.625 13.15625 -3.5625 C 13.363281 -3.519531 13.5625 -3.5 13.75 -3.5 C 14.851562 -3.5 15.40625 -2.941406 15.40625 -1.828125 C 15.40625 -1.046875 15.273438 -0.539062 15.015625 -0.3125 C 14.765625 -0.09375 14.335938 0.015625 13.734375 0.015625 Z M 5.484375 -12.4375 C 5.484375 -11.925781 5.601562 -11.347656 5.84375 -10.703125 C 6.507812 -11.128906 7.007812 -11.484375 7.34375 -11.765625 C 7.675781 -12.054688 7.84375 -12.328125 7.84375 -12.578125 C 7.84375 -13.203125 7.492188 -13.515625 6.796875 -13.515625 C 5.921875 -13.515625 5.484375 -13.15625 5.484375 -12.4375 Z M 6.140625 -2.96875 C 6.492188 -2.96875 6.8125 -3 7.09375 -3.0625 C 6.269531 -3.800781 5.492188 -4.675781 4.765625 -5.6875 C 4.429688 -5.28125 4.265625 -4.859375 4.265625 -4.421875 C 4.265625 -3.453125 4.890625 -2.96875 6.140625 -2.96875 Z M 6.140625 -2.96875 "/></g></g><g style="fill:#272726;fill-opacity:1;"><g transform="translate(313.378824, 90.155262)"><path style="stroke:none" d=""/></g></g><g style="fill:#272726;fill-opacity:1;"><g transform="translate(323.53589, 90.155262)"><path style="stroke:none" d="M 12.765625 -2.640625 C 12.984375 -2.128906 13.09375 -1.757812 13.09375 -1.53125 C 13.09375 -0.988281 12.648438 -0.535156 11.765625 -0.171875 C 11.316406 0.0234375 10.953125 0.125 10.671875 0.125 C 10.398438 0.125 10.175781 0.0546875 10 -0.078125 C 9.820312 -0.210938 9.691406 -0.347656 9.609375 -0.484375 C 9.460938 -0.753906 8.910156 -2.035156 7.953125 -4.328125 L 7.28125 -4.296875 L 4.609375 -4.296875 L 4.609375 -1.890625 C 4.609375 -1.566406 4.597656 -1.320312 4.578125 -1.15625 C 4.554688 -0.988281 4.488281 -0.800781 4.375 -0.59375 C 4.175781 -0.207031 3.625 -0.015625 2.71875 -0.015625 C 1.726562 -0.015625 1.148438 -0.28125 0.984375 -0.8125 C 0.890625 -1.050781 0.84375 -1.414062 0.84375 -1.90625 L 0.84375 -13.703125 C 0.84375 -14.023438 0.851562 -14.269531 0.875 -14.4375 C 0.894531 -14.601562 0.960938 -14.789062 1.078125 -15 C 1.273438 -15.382812 1.828125 -15.578125 2.734375 -15.578125 L 7.328125 -15.578125 C 8.578125 -15.578125 9.789062 -15.125 10.96875 -14.21875 C 11.53125 -13.78125 11.992188 -13.1875 12.359375 -12.4375 C 12.734375 -11.6875 12.921875 -10.847656 12.921875 -9.921875 C 12.921875 -8.316406 12.390625 -7 11.328125 -5.96875 C 11.640625 -5.21875 12.117188 -4.109375 12.765625 -2.640625 Z M 4.609375 -8.046875 L 7.328125 -8.046875 C 7.742188 -8.046875 8.15625 -8.203125 8.5625 -8.515625 C 8.976562 -8.828125 9.1875 -9.296875 9.1875 -9.921875 C 9.1875 -10.546875 8.976562 -11.015625 8.5625 -11.328125 C 8.15625 -11.648438 7.726562 -11.8125 7.28125 -11.8125 L 4.609375 -11.8125 Z M 4.609375 -8.046875 "/></g></g><g style="fill:#272726;fill-opacity:1;"><g transform="translate(341.723629, 90.155262)"><path style="stroke:none" d="M 4.609375 -3.765625 L 11.15625 -3.765625 C 11.476562 -3.765625 11.722656 -3.753906 11.890625 -3.734375 C 12.054688 -3.710938 12.242188 -3.644531 12.453125 -3.53125 C 12.835938 -3.332031 13.03125 -2.78125 13.03125 -1.875 C 13.03125 -0.875 12.765625 -0.289062 12.234375 -0.125 C 11.992188 -0.0390625 11.628906 0 11.140625 0 L 2.71875 0 C 1.726562 0 1.148438 -0.269531 0.984375 -0.8125 C 0.890625 -1.03125 0.84375 -1.390625 0.84375 -1.890625 L 0.84375 -13.703125 C 0.84375 -14.429688 0.976562 -14.925781 1.25 -15.1875 C 1.519531 -15.445312 2.03125 -15.578125 2.78125 -15.578125 L 11.15625 -15.578125 C 11.476562 -15.578125 11.722656 -15.566406 11.890625 -15.546875 C 12.054688 -15.523438 12.242188 -15.457031 12.453125 -15.34375 C 12.835938 -15.144531 13.03125 -14.59375 13.03125 -13.6875 C 13.03125 -12.695312 12.765625 -12.113281 12.234375 -11.9375 C 11.992188 -11.851562 11.628906 -11.8125 11.140625 -11.8125 L 4.609375 -11.8125 L 4.609375 -9.671875 L 8.8125 -9.671875 C 9.144531 -9.671875 9.390625 -9.660156 9.546875 -9.640625 C 9.710938 -9.617188 9.898438 -9.550781 10.109375 -9.4375 C 10.492188 -9.238281 10.6875 -8.6875 10.6875 -7.78125 C 10.6875 -6.789062 10.414062 -6.207031 9.875 -6.03125 C 9.632812 -5.945312 9.269531 -5.90625 8.78125 -5.90625 L 4.609375 -5.90625 Z M 4.609375 -3.765625 "/></g></g><g style="fill:#272726;fill-opacity:1;"><g transform="translate(360.060077, 90.155262)"><path style="stroke:none" d="M 10.578125 -4.078125 L 10.96875 -4.359375 C 11.445312 -4.640625 11.785156 -4.78125 11.984375 -4.78125 C 12.421875 -4.78125 12.894531 -4.382812 13.40625 -3.59375 C 13.71875 -3.09375 13.875 -2.691406 13.875 -2.390625 C 13.875 -2.097656 13.773438 -1.851562 13.578125 -1.65625 C 13.390625 -1.457031 13.164062 -1.28125 12.90625 -1.125 C 12.65625 -0.96875 12.414062 -0.816406 12.1875 -0.671875 C 11.957031 -0.535156 11.476562 -0.351562 10.75 -0.125 C 10.03125 0.101562 9.332031 0.21875 8.65625 0.21875 C 7.988281 0.21875 7.3125 0.128906 6.625 -0.046875 C 5.9375 -0.222656 5.226562 -0.519531 4.5 -0.9375 C 3.769531 -1.363281 3.113281 -1.875 2.53125 -2.46875 C 1.945312 -3.070312 1.46875 -3.84375 1.09375 -4.78125 C 0.71875 -5.726562 0.53125 -6.753906 0.53125 -7.859375 C 0.53125 -8.960938 0.710938 -9.960938 1.078125 -10.859375 C 1.453125 -11.765625 1.925781 -12.507812 2.5 -13.09375 C 3.070312 -13.6875 3.726562 -14.179688 4.46875 -14.578125 C 5.851562 -15.335938 7.25 -15.71875 8.65625 -15.71875 C 9.3125 -15.71875 9.984375 -15.613281 10.671875 -15.40625 C 11.359375 -15.207031 11.878906 -15.003906 12.234375 -14.796875 L 12.75 -14.5 C 13 -14.34375 13.195312 -14.210938 13.34375 -14.109375 C 13.707031 -13.804688 13.890625 -13.46875 13.890625 -13.09375 C 13.890625 -12.71875 13.742188 -12.328125 13.453125 -11.921875 C 12.898438 -11.160156 12.40625 -10.78125 11.96875 -10.78125 C 11.707031 -10.78125 11.34375 -10.929688 10.875 -11.234375 C 10.28125 -11.722656 9.488281 -11.96875 8.5 -11.96875 C 7.582031 -11.96875 6.675781 -11.644531 5.78125 -11 C 5.351562 -10.695312 5 -10.257812 4.71875 -9.6875 C 4.4375 -9.125 4.296875 -8.484375 4.296875 -7.765625 C 4.296875 -7.046875 4.4375 -6.40625 4.71875 -5.84375 C 5 -5.28125 5.359375 -4.832031 5.796875 -4.5 C 6.660156 -3.875 7.5625 -3.5625 8.5 -3.5625 C 8.9375 -3.5625 9.347656 -3.617188 9.734375 -3.734375 C 10.128906 -3.847656 10.410156 -3.960938 10.578125 -4.078125 Z M 10.578125 -4.078125 "/></g></g><g style="fill:#272726;fill-opacity:1;"><g transform="translate(379.267572, 90.155262)"><path style="stroke:none" d="M 0.84375 -13.703125 C 0.84375 -14.023438 0.851562 -14.269531 0.875 -14.4375 C 0.894531 -14.601562 0.960938 -14.789062 1.078125 -15 C 1.273438 -15.382812 1.828125 -15.578125 2.734375 -15.578125 C 3.734375 -15.578125 4.320312 -15.316406 4.5 -14.796875 C 4.570312 -14.546875 4.609375 -14.175781 4.609375 -13.6875 L 4.609375 -1.875 C 4.609375 -1.53125 4.597656 -1.28125 4.578125 -1.125 C 4.554688 -0.96875 4.488281 -0.785156 4.375 -0.578125 C 4.175781 -0.191406 3.625 0 2.71875 0 C 1.726562 0 1.148438 -0.269531 0.984375 -0.8125 C 0.890625 -1.03125 0.84375 -1.390625 0.84375 -1.890625 Z M 0.84375 -13.703125 "/></g></g><g style="fill:#272726;fill-opacity:1;"><g transform="translate(389.509598, 90.155262)"><path style="stroke:none" d="M 12.34375 -12.4375 C 12.71875 -11.6875 12.90625 -10.847656 12.90625 -9.921875 C 12.90625 -9.003906 12.71875 -8.171875 12.34375 -7.421875 C 11.976562 -6.679688 11.503906 -6.09375 10.921875 -5.65625 C 9.742188 -4.75 8.523438 -4.296875 7.265625 -4.296875 L 4.609375 -4.296875 L 4.609375 -1.890625 C 4.609375 -1.566406 4.597656 -1.320312 4.578125 -1.15625 C 4.554688 -0.988281 4.488281 -0.800781 4.375 -0.59375 C 4.175781 -0.207031 3.625 -0.015625 2.71875 -0.015625 C 1.726562 -0.015625 1.148438 -0.28125 0.984375 -0.8125 C 0.890625 -1.050781 0.84375 -1.414062 0.84375 -1.90625 L 0.84375 -13.703125 C 0.84375 -14.023438 0.851562 -14.269531 0.875 -14.4375 C 0.894531 -14.601562 0.960938 -14.789062 1.078125 -15 C 1.273438 -15.382812 1.828125 -15.578125 2.734375 -15.578125 L 7.28125 -15.578125 C 8.53125 -15.578125 9.742188 -15.125 10.921875 -14.21875 C 11.503906 -13.78125 11.976562 -13.1875 12.34375 -12.4375 Z M 7.28125 -8.046875 C 7.707031 -8.046875 8.125 -8.203125 8.53125 -8.515625 C 8.945312 -8.828125 9.15625 -9.296875 9.15625 -9.921875 C 9.15625 -10.546875 8.945312 -11.015625 8.53125 -11.328125 C 8.125 -11.648438 7.703125 -11.8125 7.265625 -11.8125 L 4.609375 -11.8125 L 4.609375 -8.046875 Z M 7.28125 -8.046875 "/></g></g><g style="fill:#272726;fill-opacity:1;"><g transform="translate(407.718571, 90.155262)"><path style="stroke:none" d="M 4.609375 -3.765625 L 11.15625 -3.765625 C 11.476562 -3.765625 11.722656 -3.753906 11.890625 -3.734375 C 12.054688 -3.710938 12.242188 -3.644531 12.453125 -3.53125 C 12.835938 -3.332031 13.03125 -2.78125 13.03125 -1.875 C 13.03125 -0.875 12.765625 -0.289062 12.234375 -0.125 C 11.992188 -0.0390625 11.628906 0 11.140625 0 L 2.71875 0 C 1.726562 0 1.148438 -0.269531 0.984375 -0.8125 C 0.890625 -1.03125 0.84375 -1.390625 0.84375 -1.890625 L 0.84375 -13.703125 C 0.84375 -14.429688 0.976562 -14.925781 1.25 -15.1875 C 1.519531 -15.445312 2.03125 -15.578125 2.78125 -15.578125 L 11.15625 -15.578125 C 11.476562 -15.578125 11.722656 -15.566406 11.890625 -15.546875 C 12.054688 -15.523438 12.242188 -15.457031 12.453125 -15.34375 C 12.835938 -15.144531 13.03125 -14.59375 13.03125 -13.6875 C 13.03125 -12.695312 12.765625 -12.113281 12.234375 -11.9375 C 11.992188 -11.851562 11.628906 -11.8125 11.140625 -11.8125 L 4.609375 -11.8125 L 4.609375 -9.671875 L 8.8125 -9.671875 C 9.144531 -9.671875 9.390625 -9.660156 9.546875 -9.640625 C 9.710938 -9.617188 9.898438 -9.550781 10.109375 -9.4375 C 10.492188 -9.238281 10.6875 -8.6875 10.6875 -7.78125 C 10.6875 -6.789062 10.414062 -6.207031 9.875 -6.03125 C 9.632812 -5.945312 9.269531 -5.90625 8.78125 -5.90625 L 4.609375 -5.90625 Z M 4.609375 -3.765625 "/></g></g><g style="fill:#272726;fill-opacity:1;"><g transform="translate(59.863776, 57.354798)"><path style="stroke:none" d="M 31.3125 -43.71875 C 32.226562 -43.71875 32.914062 -43.6875 33.375 -43.625 C 33.832031 -43.5625 34.347656 -43.367188 34.921875 -43.046875 C 35.492188 -42.734375 35.898438 -42.195312 36.140625 -41.4375 C 36.378906 -40.6875 36.5 -39.675781 36.5 -38.40625 C 36.5 -37.132812 36.378906 -36.117188 36.140625 -35.359375 C 35.898438 -34.609375 35.484375 -34.082031 34.890625 -33.78125 C 34.296875 -33.488281 33.769531 -33.3125 33.3125 -33.25 C 32.851562 -33.1875 32.144531 -33.15625 31.1875 -33.15625 L 12.9375 -33.15625 L 12.9375 -27.140625 L 24.6875 -27.140625 C 25.644531 -27.140625 26.351562 -27.109375 26.8125 -27.046875 C 27.269531 -26.984375 27.796875 -26.796875 28.390625 -26.484375 C 29.421875 -25.878906 29.9375 -24.304688 29.9375 -21.765625 C 29.9375 -18.984375 29.179688 -17.332031 27.671875 -16.8125 C 27.035156 -16.613281 26.019531 -16.515625 24.625 -16.515625 L 12.9375 -16.515625 L 12.9375 -5.25 C 12.9375 -4.289062 12.90625 -3.59375 12.84375 -3.15625 C 12.789062 -2.71875 12.601562 -2.203125 12.28125 -1.609375 C 11.726562 -0.535156 10.179688 0 7.640625 0 C 4.847656 0 3.21875 -0.753906 2.75 -2.265625 C 2.507812 -2.898438 2.390625 -3.914062 2.390625 -5.3125 L 2.390625 -38.46875 C 2.390625 -40.5 2.765625 -41.878906 3.515625 -42.609375 C 4.273438 -43.347656 5.707031 -43.71875 7.8125 -43.71875 Z M 31.3125 -43.71875 "/></g></g><g style="fill:#272726;fill-opacity:1;"><g transform="translate(100.539112, 57.354798)"><path style="stroke:none" d="M 22.90625 -44.25 C 28.789062 -44.25 33.898438 -42.117188 38.234375 -37.859375 C 42.566406 -33.609375 44.734375 -28.332031 44.734375 -22.03125 C 44.734375 -15.726562 42.664062 -10.359375 38.53125 -5.921875 C 34.394531 -1.492188 29.300781 0.71875 23.25 0.71875 C 17.207031 0.71875 12.066406 -1.46875 7.828125 -5.84375 C 3.597656 -10.21875 1.484375 -15.425781 1.484375 -21.46875 C 1.484375 -24.769531 2.078125 -27.859375 3.265625 -30.734375 C 4.460938 -33.617188 6.054688 -36.035156 8.046875 -37.984375 C 10.035156 -39.929688 12.320312 -41.460938 14.90625 -42.578125 C 17.488281 -43.691406 20.15625 -44.25 22.90625 -44.25 Z M 12.046875 -21.765625 C 12.046875 -18.222656 13.1875 -15.347656 15.46875 -13.140625 C 17.757812 -10.941406 20.316406 -9.84375 23.140625 -9.84375 C 25.960938 -9.84375 28.503906 -10.914062 30.765625 -13.0625 C 33.035156 -15.207031 34.171875 -18.085938 34.171875 -21.703125 C 34.171875 -25.328125 33.023438 -28.234375 30.734375 -30.421875 C 28.453125 -32.609375 25.898438 -33.703125 23.078125 -33.703125 C 20.253906 -33.703125 17.707031 -32.597656 15.4375 -30.390625 C 13.175781 -28.179688 12.046875 -25.304688 12.046875 -21.765625 Z M 12.046875 -21.765625 "/></g></g><g style="fill:#272726;fill-opacity:1;"><g transform="translate(149.444865, 57.354798)"><path style="stroke:none" d="M 22.90625 -44.25 C 28.789062 -44.25 33.898438 -42.117188 38.234375 -37.859375 C 42.566406 -33.609375 44.734375 -28.332031 44.734375 -22.03125 C 44.734375 -15.726562 42.664062 -10.359375 38.53125 -5.921875 C 34.394531 -1.492188 29.300781 0.71875 23.25 0.71875 C 17.207031 0.71875 12.066406 -1.46875 7.828125 -5.84375 C 3.597656 -10.21875 1.484375 -15.425781 1.484375 -21.46875 C 1.484375 -24.769531 2.078125 -27.859375 3.265625 -30.734375 C 4.460938 -33.617188 6.054688 -36.035156 8.046875 -37.984375 C 10.035156 -39.929688 12.320312 -41.460938 14.90625 -42.578125 C 17.488281 -43.691406 20.15625 -44.25 22.90625 -44.25 Z M 12.046875 -21.765625 C 12.046875 -18.222656 13.1875 -15.347656 15.46875 -13.140625 C 17.757812 -10.941406 20.316406 -9.84375 23.140625 -9.84375 C 25.960938 -9.84375 28.503906 -10.914062 30.765625 -13.0625 C 33.035156 -15.207031 34.171875 -18.085938 34.171875 -21.703125 C 34.171875 -25.328125 33.023438 -28.234375 30.734375 -30.421875 C 28.453125 -32.609375 25.898438 -33.703125 23.078125 -33.703125 C 20.253906 -33.703125 17.707031 -32.597656 15.4375 -30.390625 C 13.175781 -28.179688 12.046875 -25.304688 12.046875 -21.765625 Z M 12.046875 -21.765625 "/></g></g><g style="fill:#272726;fill-opacity:1;"><g transform="translate(198.350625, 57.354798)"><path style="stroke:none" d="M 7.6875 -43.78125 L 18.734375 -43.71875 C 24.492188 -43.71875 29.5625 -41.640625 33.9375 -37.484375 C 38.3125 -33.328125 40.5 -28.21875 40.5 -22.15625 C 40.5 -16.09375 38.359375 -10.894531 34.078125 -6.5625 C 29.804688 -2.226562 24.628906 -0.0625 18.546875 -0.0625 L 7.640625 -0.0625 C 5.210938 -0.0625 3.695312 -0.554688 3.09375 -1.546875 C 2.625 -2.378906 2.390625 -3.65625 2.390625 -5.375 L 2.390625 -38.53125 C 2.390625 -39.476562 2.414062 -40.171875 2.46875 -40.609375 C 2.53125 -41.046875 2.722656 -41.566406 3.046875 -42.171875 C 3.597656 -43.242188 5.144531 -43.78125 7.6875 -43.78125 Z M 18.734375 -10.609375 C 21.585938 -10.609375 24.164062 -11.671875 26.46875 -13.796875 C 28.78125 -15.929688 29.9375 -18.609375 29.9375 -21.828125 C 29.9375 -25.046875 28.8125 -27.738281 26.5625 -29.90625 C 24.320312 -32.070312 21.691406 -33.15625 18.671875 -33.15625 L 12.9375 -33.15625 L 12.9375 -10.609375 Z M 18.734375 -10.609375 "/></g></g><g style="fill:#272726;fill-opacity:1;"><g transform="translate(243.021882, 57.354798)"><path style="stroke:none" d=""/></g></g><g style="fill:#272726;fill-opacity:1;"><g transform="translate(260.795178, 57.354798)"><path style="stroke:none" d="M 29.390625 -42.109375 C 29.710938 -42.703125 30.25 -43.117188 31 -43.359375 C 31.757812 -43.597656 32.71875 -43.71875 33.875 -43.71875 C 35.03125 -43.71875 35.945312 -43.617188 36.625 -43.421875 C 37.300781 -43.222656 37.816406 -42.984375 38.171875 -42.703125 C 38.523438 -42.421875 38.800781 -42.023438 39 -41.515625 C 39.195312 -40.835938 39.296875 -39.800781 39.296875 -38.40625 L 39.296875 -5.3125 C 39.296875 -4.394531 39.265625 -3.707031 39.203125 -3.25 C 39.148438 -2.789062 38.960938 -2.265625 38.640625 -1.671875 C 38.085938 -0.597656 36.539062 -0.0625 34 -0.0625 C 31.21875 -0.0625 29.585938 -0.796875 29.109375 -2.265625 C 28.867188 -2.941406 28.75 -3.976562 28.75 -5.375 L 28.75 -17.46875 L 12.9375 -17.46875 L 12.9375 -5.3125 C 12.9375 -4.394531 12.90625 -3.707031 12.84375 -3.25 C 12.789062 -2.789062 12.601562 -2.265625 12.28125 -1.671875 C 11.726562 -0.597656 10.179688 -0.0625 7.640625 -0.0625 C 4.847656 -0.0625 3.21875 -0.796875 2.75 -2.265625 C 2.507812 -2.941406 2.390625 -3.976562 2.390625 -5.375 L 2.390625 -38.46875 C 2.390625 -39.382812 2.414062 -40.070312 2.46875 -40.53125 C 2.53125 -40.988281 2.722656 -41.515625 3.046875 -42.109375 C 3.597656 -43.179688 5.144531 -43.71875 7.6875 -43.71875 C 10.476562 -43.71875 12.128906 -42.984375 12.640625 -41.515625 C 12.835938 -40.835938 12.9375 -39.800781 12.9375 -38.40625 L 12.9375 -26.234375 L 28.75 -26.234375 L 28.75 -38.46875 C 28.75 -39.382812 28.773438 -40.070312 28.828125 -40.53125 C 28.890625 -40.988281 29.078125 -41.515625 29.390625 -42.109375 Z M 29.390625 -42.109375 "/></g></g><g style="fill:#272726;fill-opacity:1;"><g transform="translate(305.168236, 57.354798)"><path style="stroke:none" d="M 27.609375 -40.609375 L 43.71875 -7.328125 C 44.394531 -5.984375 44.734375 -4.972656 44.734375 -4.296875 C 44.734375 -2.859375 43.578125 -1.566406 41.265625 -0.421875 C 39.921875 0.253906 38.859375 0.59375 38.078125 0.59375 C 37.304688 0.59375 36.671875 0.410156 36.171875 0.046875 C 35.671875 -0.304688 35.3125 -0.679688 35.09375 -1.078125 C 34.875 -1.472656 34.566406 -2.066406 34.171875 -2.859375 L 31.078125 -9.296875 L 14.546875 -9.296875 L 11.453125 -2.859375 C 11.054688 -2.066406 10.75 -1.488281 10.53125 -1.125 C 10.3125 -0.769531 9.953125 -0.40625 9.453125 -0.03125 C 8.953125 0.34375 8.3125 0.53125 7.53125 0.53125 C 6.757812 0.53125 5.703125 0.191406 4.359375 -0.484375 C 2.046875 -1.585938 0.890625 -2.859375 0.890625 -4.296875 C 0.890625 -4.972656 1.226562 -5.984375 1.90625 -7.328125 L 18.015625 -40.671875 C 18.453125 -41.585938 19.113281 -42.320312 20 -42.875 C 20.894531 -43.4375 21.84375 -43.71875 22.84375 -43.71875 C 24.988281 -43.71875 26.578125 -42.679688 27.609375 -40.609375 Z M 22.78125 -26.296875 L 18.84375 -18.125 L 26.78125 -18.125 Z M 22.78125 -26.296875 "/></g></g><g style="fill:#272726;fill-opacity:1;"><g transform="translate(353.47759, 57.354798)"><path style="stroke:none" d="M 42.28125 -43.0625 C 44.625 -41.90625 45.796875 -40.632812 45.796875 -39.25 C 45.796875 -38.613281 45.5 -37.65625 44.90625 -36.375 L 28.453125 -2.984375 C 28.015625 -2.109375 27.347656 -1.398438 26.453125 -0.859375 C 25.554688 -0.328125 24.628906 -0.0625 23.671875 -0.0625 L 23.078125 -0.0625 C 22.085938 -0.0625 21.144531 -0.328125 20.25 -0.859375 C 19.351562 -1.398438 18.6875 -2.109375 18.25 -2.984375 L 1.796875 -36.375 C 1.191406 -37.65625 0.890625 -38.613281 0.890625 -39.25 C 0.890625 -40.632812 2.0625 -41.90625 4.40625 -43.0625 C 5.71875 -43.738281 6.722656 -44.078125 7.421875 -44.078125 C 8.117188 -44.078125 8.644531 -43.992188 9 -43.828125 C 9.363281 -43.671875 9.703125 -43.394531 10.015625 -43 C 10.378906 -42.519531 10.707031 -41.992188 11 -41.421875 C 11.300781 -40.847656 12.066406 -39.195312 13.296875 -36.46875 C 14.535156 -33.75 15.859375 -30.859375 17.265625 -27.796875 C 18.679688 -24.734375 20.015625 -21.835938 21.265625 -19.109375 C 22.515625 -16.390625 23.21875 -14.867188 23.375 -14.546875 L 35.3125 -40.671875 C 35.625 -41.429688 35.898438 -42.03125 36.140625 -42.46875 C 36.859375 -43.539062 37.734375 -44.078125 38.765625 -44.078125 C 39.796875 -44.078125 40.96875 -43.738281 42.28125 -43.0625 Z M 42.28125 -43.0625 "/></g></g><g style="fill:#272726;fill-opacity:1;"><g transform="translate(402.86048, 57.354798)"><path style="stroke:none" d="M 12.9375 -10.5625 L 31.3125 -10.5625 C 32.226562 -10.5625 32.914062 -10.53125 33.375 -10.46875 C 33.832031 -10.40625 34.359375 -10.21875 34.953125 -9.90625 C 36.023438 -9.34375 36.5625 -7.789062 36.5625 -5.25 C 36.5625 -2.46875 35.828125 -0.835938 34.359375 -0.359375 C 33.679688 -0.117188 32.644531 0 31.25 0 L 7.640625 0 C 4.847656 0 3.21875 -0.753906 2.75 -2.265625 C 2.507812 -2.898438 2.390625 -3.914062 2.390625 -5.3125 L 2.390625 -38.46875 C 2.390625 -40.5 2.765625 -41.878906 3.515625 -42.609375 C 4.273438 -43.347656 5.707031 -43.71875 7.8125 -43.71875 L 31.3125 -43.71875 C 32.226562 -43.71875 32.914062 -43.6875 33.375 -43.625 C 33.832031 -43.5625 34.359375 -43.375 34.953125 -43.0625 C 36.023438 -42.5 36.5625 -40.945312 36.5625 -38.40625 C 36.5625 -35.625 35.828125 -33.992188 34.359375 -33.515625 C 33.679688 -33.273438 32.644531 -33.15625 31.25 -33.15625 L 12.9375 -33.15625 L 12.9375 -27.140625 L 24.75 -27.140625 C 25.664062 -27.140625 26.351562 -27.109375 26.8125 -27.046875 C 27.269531 -26.984375 27.796875 -26.796875 28.390625 -26.484375 C 29.460938 -25.921875 30 -24.367188 30 -21.828125 C 30 -19.046875 29.242188 -17.414062 27.734375 -16.9375 C 27.054688 -16.695312 26.019531 -16.578125 24.625 -16.578125 L 12.9375 -16.578125 Z M 12.9375 -10.5625 "/></g></g><g style="fill:#272726;fill-opacity:1;"><g transform="translate(443.595454, 57.354798)"><path style="stroke:none" d="M 30.625 -41.890625 C 31 -42.585938 31.5625 -43.054688 32.3125 -43.296875 C 33.070312 -43.535156 34.019531 -43.65625 35.15625 -43.65625 C 36.289062 -43.65625 37.207031 -43.554688 37.90625 -43.359375 C 38.601562 -43.160156 39.117188 -42.921875 39.453125 -42.640625 C 39.785156 -42.359375 40.035156 -41.941406 40.203125 -41.390625 C 40.441406 -40.753906 40.5625 -39.738281 40.5625 -38.34375 L 40.5625 -5.25 C 40.5625 -4.289062 40.53125 -3.59375 40.46875 -3.15625 C 40.40625 -2.71875 40.21875 -2.203125 39.90625 -1.609375 C 39.34375 -0.535156 37.789062 0 35.25 0 C 33.695312 0 32.617188 -0.117188 32.015625 -0.359375 C 31.421875 -0.597656 30.925781 -0.972656 30.53125 -1.484375 C 21.582031 -13.421875 15.695312 -21.21875 12.875 -24.875 L 12.875 -5.25 C 12.875 -4.289062 12.84375 -3.59375 12.78125 -3.15625 C 12.726562 -2.71875 12.539062 -2.203125 12.21875 -1.609375 C 11.664062 -0.535156 10.117188 0 7.578125 0 C 5.109375 0 3.597656 -0.535156 3.046875 -1.609375 C 2.722656 -2.203125 2.53125 -2.738281 2.46875 -3.21875 C 2.414062 -3.695312 2.390625 -4.394531 2.390625 -5.3125 L 2.390625 -38.59375 C 2.390625 -40.101562 2.578125 -41.203125 2.953125 -41.890625 C 3.328125 -42.585938 3.890625 -43.054688 4.640625 -43.296875 C 5.398438 -43.535156 6.375 -43.65625 7.5625 -43.65625 C 8.757812 -43.65625 9.707031 -43.546875 10.40625 -43.328125 C 11.101562 -43.109375 11.59375 -42.859375 11.875 -42.578125 C 12.03125 -42.460938 12.484375 -41.945312 13.234375 -41.03125 C 21.628906 -29.625 27.238281 -22.085938 30.0625 -18.421875 L 30.0625 -38.59375 C 30.0625 -40.101562 30.25 -41.203125 30.625 -41.890625 Z M 30.625 -41.890625 "/></g></g></g></svg>